<svg width="24" height="24" viewBox="0 0 24 24" fill="none" xmlns="http://www.w3.org/2000/svg">
<path d="M22 17.0208V13.0416L21.9756 12.6779C21.8604 10.9593 21.3378 9.34752 20.4999 7.9502M15.5896 17.8012C15.4203 16.9103 15.4203 15.9944 15.5896 15.1035C15.8616 13.6716 16.8981 12.5183 18.2698 12.121L18.5607 12.0367C18.8632 11.9491 19.176 11.9047 19.4903 11.9047C20.8764 11.9047 22 13.0544 22 14.4727V18.432C22 19.8503 20.8764 21 19.4903 21C19.176 21 18.8632 20.9556 18.5607 20.868L18.2698 20.7837C16.8981 20.3865 15.8616 19.2331 15.5896 17.8012Z" stroke="#363853" stroke-width="1.5" stroke-linecap="round"/>
<path d="M1.24997 17.0208C1.24997 17.435 1.58576 17.7708 1.99997 17.7708C2.41419 17.7708 2.74997 17.435 2.74997 17.0208H1.24997ZM1.99997 13.0416L1.25165 12.9914L1.24997 13.0165V13.0416H1.99997ZM2.02435 12.678L2.77267 12.7281L2.02435 12.678ZM10.1659 3.18694L10.3171 3.92154L10.1659 3.18694ZM13.8341 3.18694L13.6829 3.92154L13.8341 3.18694ZM5.73018 12.121L5.93882 11.4006L5.93881 11.4006L5.73018 12.121ZM5.43922 12.0367L5.23058 12.7571H5.23058L5.43922 12.0367ZM1.99998 14.4727H2.74998V14.4727L1.99998 14.4727ZM1.99998 18.4321L2.74998 18.4321V18.4321H1.99998ZM3.02145 20.5L2.56964 21.0987L2.77022 21.2501L3.02151 21.25L3.02145 20.5ZM18.2698 5.3353L18.8001 4.80497L18.7768 4.78163L18.7515 4.76043L18.2698 5.3353ZM22.5303 2.53033C22.8232 2.23744 22.8232 1.76256 22.5303 1.46967C22.2374 1.17678 21.7625 1.17678 21.4696 1.46967L22.5303 2.53033ZM1.46961 21.4697C1.17672 21.7626 1.17672 22.2374 1.46961 22.5303C1.7625 22.8232 2.23738 22.8232 2.53027 22.5303L1.46961 21.4697ZM18.4672 5.53274L18.9975 6.06307L18.4672 5.53274ZM8.29056 14.6328L9.00459 14.4033L8.29056 14.6328ZM2.74997 17.0208V13.0416H1.24997V17.0208H2.74997ZM2.74829 13.0918L2.77267 12.7281L1.27603 12.6278L1.25165 12.9914L2.74829 13.0918ZM10.3171 3.92154C11.4279 3.69287 12.572 3.69287 13.6829 3.92154L13.9853 2.45234C12.6749 2.1826 11.325 2.1826 10.0147 2.45234L10.3171 3.92154ZM2.77267 12.7281C3.06449 8.37463 6.16363 4.77651 10.3171 3.92154L10.0147 2.45234C5.18025 3.44749 1.61154 7.62249 1.27603 12.6278L2.77267 12.7281ZM5.93881 11.4006L5.64785 11.3163L5.23058 12.7571L5.52154 12.8414L5.93881 11.4006ZM5.64786 11.3163C5.27774 11.2092 4.89469 11.1547 4.50966 11.1547V12.6547C4.75325 12.6547 4.99583 12.6891 5.23058 12.7571L5.64786 11.3163ZM4.50966 11.1547C2.69324 11.1547 1.24997 12.6566 1.24998 14.4727L2.74998 14.4727C2.74997 13.4523 3.55395 12.6547 4.50966 12.6547V11.1547ZM5.52154 12.8414C6.49232 13.1226 7.26146 13.8819 7.57652 14.8623L9.00459 14.4033C8.54165 12.9628 7.40367 11.8249 5.93882 11.4006L5.52154 12.8414ZM1.24998 14.4727L1.24998 18.4321H2.74998L2.74998 14.4727H1.24998ZM3.47326 19.9014C3.03674 19.5719 2.74997 19.0391 2.74998 18.4321L1.24998 18.4321C1.24997 19.5214 1.767 20.4929 2.56964 21.0987L3.47326 19.9014ZM18.7515 4.76043C17.4047 3.63198 15.7815 2.82209 13.9853 2.45234L13.6829 3.92154C15.2282 4.23963 16.6258 4.93628 17.7881 5.91016L18.7515 4.76043ZM7.88005 15.0592L2.96961 19.9697L4.03027 21.0303L8.94071 16.1199L7.88005 15.0592ZM2.96961 19.9697L1.46961 21.4697L2.53027 22.5303L4.03027 21.0303L2.96961 19.9697ZM3.02151 21.25L3.5 21.25L3.49988 19.75L3.02139 19.75L3.02151 21.25ZM21.4696 1.46967L17.9369 5.00241L18.9975 6.06307L22.5303 2.53033L21.4696 1.46967ZM17.9369 5.00241L7.88005 15.0592L8.94071 16.1199L18.9975 6.06307L17.9369 5.00241ZM17.7394 5.86563L17.9369 6.06307L18.9975 5.00241L18.8001 4.80497L17.7394 5.86563ZM7.57652 14.8623C7.63941 15.058 7.66038 15.2906 7.66038 15.5896H9.16038C9.16038 15.242 9.13952 14.8232 9.00459 14.4033L7.57652 14.8623Z" fill="#363853"/>
</svg>
