<svg width="24" height="24" viewBox="0 0 24 24" fill="none" xmlns="http://www.w3.org/2000/svg">
<path d="M4.38262 11.1638C4.84631 9.4585 6.27891 8.15035 8.08242 7.7854C8.28332 7.74475 8.48475 7.70725 8.68661 7.67292C10.8783 7.30019 13.1217 7.30019 15.3134 7.67292C15.5153 7.70725 15.7167 7.74475 15.9176 7.7854C17.7211 8.15035 19.1537 9.4585 19.6174 11.1638L19.6939 11.4452C20.1984 13.3006 20.0769 15.2608 19.3469 17.0462L19.254 17.2734C18.5078 19.0984 16.8087 20.4112 14.7852 20.7261L14.0365 20.8426C12.6877 21.0525 11.3123 21.0525 9.96352 20.8426L9.21479 20.7261C7.19131 20.4112 5.49221 19.0984 4.74599 17.2734L4.6531 17.0462C3.92306 15.2608 3.80161 13.3006 4.30609 11.4453L4.38262 11.1638Z" fill="#363853" fill-opacity="0.15"/>
<path d="M8.68661 7.67292C10.8783 7.30019 13.1217 7.30019 15.3134 7.67292C15.5411 6.98785 15.5808 6.25598 15.4253 5.54836C15.1468 4.28085 14.0911 3.30188 12.7571 3.0742L12.6396 3.05415C12.2166 2.98195 11.7835 2.98195 11.3604 3.05415L11.2429 3.0742C9.90893 3.30188 8.85316 4.28085 8.57466 5.54836C8.41918 6.25598 8.45887 6.98785 8.68661 7.67292Z" fill="#363853" fill-opacity="0.15"/>
<path d="M4.6531 17.0462L5.34731 16.7624H5.34731L4.6531 17.0462ZM4.30609 11.4453L3.58237 11.2485L4.30609 11.4453ZM19.6939 11.4452L20.4176 11.2485L19.6939 11.4452ZM19.3469 17.0462L18.6527 16.7624V16.7624L19.3469 17.0462ZM14.0365 20.8426L13.9211 20.1015H13.9211L14.0365 20.8426ZM9.96352 20.8426L10.0788 20.1015H10.0788L9.96352 20.8426ZM8.08242 7.7854L7.93367 7.0503H7.93367L8.08242 7.7854ZM15.9176 7.7854L15.7688 8.5205L15.9176 7.7854ZM9.21479 20.7261L9.09946 21.4671H9.09947L9.21479 20.7261ZM4.74599 17.2734L4.05177 17.5572H4.05177L4.74599 17.2734ZM14.7852 20.7261L14.9005 21.4671H14.9005L14.7852 20.7261ZM19.254 17.2734L19.9482 17.5573V17.5573L19.254 17.2734ZM19.6174 11.1638L18.8937 11.3606H18.8937L19.6174 11.1638ZM4.38262 11.1638L5.10635 11.3606L4.38262 11.1638ZM15.1775 8.02577L14.4909 7.72404L14.4909 7.72404L15.1775 8.02577ZM14.2779 8.2088C14.1112 8.58802 14.2836 9.03052 14.6628 9.19716C15.042 9.3638 15.4845 9.19148 15.6511 8.81226L14.2779 8.2088ZM8.82248 8.02577L9.50911 7.72404L9.50911 7.72404L8.82248 8.02577ZM8.34887 8.81226C8.51551 9.19148 8.95802 9.3638 9.33723 9.19716C9.71645 9.03052 9.88877 8.58802 9.72213 8.2088L8.34887 8.81226ZM11.2429 3.0742L11.3691 3.81351L11.3691 3.81351L11.2429 3.0742ZM11.3604 3.05415L11.2342 2.31484V2.31484L11.3604 3.05415ZM12.6396 3.05415L12.5134 3.79346L12.5134 3.79346L12.6396 3.05415ZM12.7571 3.0742L12.8832 2.33489L12.8832 2.33489L12.7571 3.0742ZM15.4253 5.54836L14.6928 5.70931L15.4253 5.54836ZM8.57466 5.54836L9.30719 5.70931V5.70931L8.57466 5.54836ZM14.6699 19.985L13.9211 20.1015L14.1518 21.5837L14.9005 21.4671L14.6699 19.985ZM10.0788 20.1015L9.33011 19.985L9.09947 21.4671L9.84819 21.5837L10.0788 20.1015ZM18.8937 11.3606L18.9702 11.642L20.4176 11.2485L20.3411 10.967L18.8937 11.3606ZM18.6527 16.7624L18.5598 16.9896L19.9482 17.5573L20.0411 17.3301L18.6527 16.7624ZM5.4402 16.9895L5.34731 16.7624L3.95889 17.3301L4.05177 17.5572L5.4402 16.9895ZM5.02981 11.642L5.10635 11.3606L3.6589 10.967L3.58237 11.2485L5.02981 11.642ZM5.34731 16.7624C4.67945 15.129 4.56875 13.3377 5.02981 11.642L3.58237 11.2485C3.03448 13.2634 3.16667 15.3925 3.95889 17.3301L5.34731 16.7624ZM18.9702 11.642C19.4313 13.3377 19.3205 15.129 18.6527 16.7624L20.0411 17.3301C20.8333 15.3926 20.9655 13.2634 20.4176 11.2485L18.9702 11.642ZM13.9211 20.1015C12.6488 20.2995 11.3512 20.2995 10.0788 20.1015L9.84819 21.5837C11.2734 21.8054 12.7266 21.8054 14.1518 21.5837L13.9211 20.1015ZM9.33011 19.985C7.55413 19.7086 6.08232 18.56 5.4402 16.9895L4.05177 17.5572C4.9021 19.6369 6.82848 21.1137 9.09946 21.4671L9.33011 19.985ZM14.9005 21.4671C17.1715 21.1137 19.0979 19.6369 19.9482 17.5573L18.5598 16.9896C17.9177 18.56 16.4458 19.7086 14.6699 19.985L14.9005 21.4671ZM15.7688 8.5205C17.3088 8.83212 18.5082 9.94301 18.8937 11.3606L20.3411 10.967C19.7992 8.974 18.1334 7.46858 16.0663 7.0503L15.7688 8.5205ZM7.93367 7.0503C5.86662 7.46858 4.20082 8.974 3.6589 10.967L5.10635 11.3606C5.4918 9.94301 6.69121 8.83212 8.23117 8.5205L7.93367 7.0503ZM14.4909 7.72404L14.2779 8.2088L15.6511 8.81226L15.8642 8.3275L14.4909 7.72404ZM8.13585 8.3275L8.34887 8.81226L9.72213 8.2088L9.50911 7.72404L8.13585 8.3275ZM11.3691 3.81351L11.4866 3.79346L11.2342 2.31484L11.1168 2.33489L11.3691 3.81351ZM12.5134 3.79346L12.6309 3.81351L12.8832 2.33489L12.7658 2.31484L12.5134 3.79346ZM11.4866 3.79346C11.8261 3.73551 12.1739 3.73551 12.5134 3.79346L12.7658 2.31484C12.2592 2.22839 11.7408 2.22839 11.2342 2.31484L11.4866 3.79346ZM16.1579 5.38741C15.8102 3.80521 14.5013 2.61105 12.8832 2.33489L12.6309 3.81351C13.6808 3.99271 14.4835 4.75649 14.6928 5.70931L16.1579 5.38741ZM9.30719 5.70931C9.51654 4.75649 10.3192 3.99271 11.3691 3.81351L11.1168 2.33489C9.49869 2.61105 8.18977 3.80521 7.84213 5.38741L9.30719 5.70931ZM8.81236 8.41231C10.9208 8.05373 13.0792 8.05373 15.1876 8.41231L15.4391 6.93354C13.1642 6.54665 10.8358 6.54665 8.56087 6.93354L8.81236 8.41231ZM16.0251 7.90952C16.2952 7.09692 16.3425 6.22772 16.1579 5.38741L14.6928 5.70931C14.8191 6.28424 14.787 6.87878 14.6017 7.43633L16.0251 7.90952ZM7.84213 5.38741C7.6575 6.22772 7.70477 7.09693 7.97491 7.90952L9.39832 7.43633C9.21297 6.87878 9.18086 6.28424 9.30719 5.70931L7.84213 5.38741ZM14.6017 7.43633C14.5694 7.53339 14.5325 7.6294 14.4909 7.72404L15.8642 8.3275C15.9245 8.19024 15.9781 8.05077 16.0251 7.90952L14.6017 7.43633ZM7.97491 7.90952C8.02187 8.05077 8.07553 8.19024 8.13585 8.3275L9.50911 7.72404C9.46752 7.6294 9.43059 7.5334 9.39832 7.43633L7.97491 7.90952ZM8.23117 8.5205C8.42442 8.4814 8.61818 8.44533 8.81236 8.41231L8.56087 6.93354C8.35132 6.96918 8.14223 7.0081 7.93367 7.0503L8.23117 8.5205ZM15.1876 8.41231C15.3818 8.44533 15.5756 8.4814 15.7688 8.5205L16.0663 7.0503C15.8578 7.0081 15.6487 6.96918 15.4391 6.93354L15.1876 8.41231Z" fill="#363853"/>
</svg>
