<svg width="24" height="24" viewBox="0 0 24 24" fill="none" xmlns="http://www.w3.org/2000/svg">
<path d="M5.28772 7.09496C5.77901 5.2041 7.32284 3.74768 9.2739 3.3345L9.73292 3.2373C11.227 2.9209 12.773 2.9209 14.2671 3.2373L14.7261 3.3345C16.6772 3.74768 18.221 5.2041 18.7123 7.09496C19.0959 8.57148 19.0959 10.1183 18.7123 11.5948C18.221 13.4857 16.6772 14.9421 14.7261 15.3552L14.2671 15.4525C12.773 15.7688 11.227 15.7688 9.73292 15.4525L9.27389 15.3552C7.32284 14.9421 5.77901 13.4857 5.28772 11.5948C4.90409 10.1183 4.90409 8.57148 5.28772 7.09496Z" fill="#363853" fill-opacity="0.15"/>
<path d="M14.3723 16.4393C14.3723 16.0251 14.0365 15.6893 13.6223 15.6893C13.2081 15.6893 12.8723 16.0251 12.8723 16.4393H14.3723ZM11.261 16.4393C11.261 16.0251 10.9252 15.6893 10.511 15.6893C10.0968 15.6893 9.76098 16.0251 9.76098 16.4393H11.261ZM11.3167 21C11.3167 21.4142 11.6524 21.75 12.0667 21.75C12.4809 21.75 12.8167 21.4142 12.8167 21H11.3167ZM5.28772 11.5948L4.56182 11.7834L5.28772 11.5948ZM5.28772 7.09496L6.01362 7.28356L5.28772 7.09496ZM18.7123 7.09496L17.9864 7.28357L18.7123 7.09496ZM18.7123 11.5948L19.4382 11.7834L18.7123 11.5948ZM14.2671 15.4525L14.4225 16.1862L14.2671 15.4525ZM9.73292 15.4525L9.8883 14.7187H9.8883L9.73292 15.4525ZM9.73292 3.2373L9.8883 3.97103L9.73292 3.2373ZM14.2671 3.2373L14.4225 2.50357V2.50357L14.2671 3.2373ZM9.27389 15.3552L9.11851 16.089H9.11851L9.27389 15.3552ZM14.7261 15.3552L14.5707 14.6215V14.6215L14.7261 15.3552ZM14.7261 3.3345L14.5707 4.06823V4.06823L14.7261 3.3345ZM9.2739 3.3345L9.11851 2.60078L9.2739 3.3345ZM13.0618 7.28625C13.3242 6.96574 13.2771 6.49321 12.9566 6.23083C12.6361 5.96844 12.1636 6.01556 11.9012 6.33607L13.0618 7.28625ZM10.4073 9.34489L9.82693 8.86979C9.64334 9.09406 9.60539 9.40403 9.72947 9.66596C9.85355 9.92789 10.1174 10.0949 10.4073 10.0949V9.34489ZM13.5186 9.34489L14.099 9.81998C14.2825 9.59571 14.3205 9.28574 14.1964 9.02381C14.0723 8.76188 13.8084 8.59489 13.5186 8.59489V9.34489ZM10.864 11.4035C10.6017 11.724 10.6488 12.1966 10.9693 12.4589C11.2898 12.7213 11.7623 12.6742 12.0247 12.3537L10.864 11.4035ZM12.8723 16.4393V17.2903H14.3723V16.4393H12.8723ZM11.261 17.2903V16.4393H9.76098V17.2903H11.261ZM11.3167 18.8105V21H12.8167V18.8105H11.3167ZM9.76098 17.2903C9.76098 18.5603 10.8097 19.5605 12.0667 19.5605V18.0605C11.6053 18.0605 11.261 17.6995 11.261 17.2903H9.76098ZM12.8723 17.2903C12.8723 17.6995 12.528 18.0605 12.0667 18.0605V19.5605C13.3237 19.5605 14.3723 18.5603 14.3723 17.2903H12.8723ZM9.42928 4.06823L9.8883 3.97103L9.57753 2.50357L9.11851 2.60078L9.42928 4.06823ZM14.1117 3.97103L14.5707 4.06823L14.8815 2.60078L14.4225 2.50357L14.1117 3.97103ZM14.5707 14.6215L14.1117 14.7187L14.4225 16.1862L14.8815 16.089L14.5707 14.6215ZM9.8883 14.7187L9.42927 14.6215L9.11851 16.089L9.57753 16.1862L9.8883 14.7187ZM6.01362 11.4062C5.66213 10.0534 5.66213 8.6364 6.01362 7.28356L4.56182 6.90636C4.14606 8.50656 4.14606 10.1832 4.56182 11.7834L6.01362 11.4062ZM17.9864 7.28357C18.3379 8.6364 18.3379 10.0533 17.9864 11.4062L19.4382 11.7834C19.8539 10.1832 19.8539 8.50656 19.4382 6.90636L17.9864 7.28357ZM14.1117 14.7187C12.7201 15.0134 11.2799 15.0134 9.8883 14.7187L9.57753 16.1862C11.174 16.5243 12.826 16.5243 14.4225 16.1862L14.1117 14.7187ZM9.8883 3.97103C11.2799 3.67632 12.7201 3.67633 14.1117 3.97103L14.4225 2.50357C12.826 2.16548 11.174 2.16548 9.57753 2.50357L9.8883 3.97103ZM9.42927 14.6215C7.74897 14.2657 6.43154 13.0147 6.01362 11.4062L4.56182 11.7834C5.12647 13.9566 6.89671 15.6185 9.11851 16.089L9.42927 14.6215ZM14.8815 16.089C17.1033 15.6185 18.8735 13.9566 19.4382 11.7834L17.9864 11.4062C17.5685 13.0147 16.251 14.2657 14.5707 14.6215L14.8815 16.089ZM14.5707 4.06823C16.251 4.42407 17.5685 5.67506 17.9864 7.28357L19.4382 6.90636C18.8735 4.73313 17.1033 3.07129 14.8815 2.60078L14.5707 4.06823ZM9.11851 2.60078C6.89671 3.07129 5.12647 4.73313 4.56182 6.90636L6.01362 7.28356C6.43154 5.67506 7.74897 4.42407 9.42928 4.06823L9.11851 2.60078ZM11.9012 6.33607L9.82693 8.86979L10.9876 9.81998L13.0618 7.28625L11.9012 6.33607ZM10.4073 10.0949H13.5186V8.59489H10.4073V10.0949ZM12.9383 8.86979L10.864 11.4035L12.0247 12.3537L14.099 9.81998L12.9383 8.86979Z" fill="#363853"/>
</svg>
