<svg width="24" height="24" viewBox="0 0 24 24" fill="none" xmlns="http://www.w3.org/2000/svg">
<path d="M12 4C15.5487 4 18.4665 6.52713 18.8086 9.76241C20.6853 10.5776 22 12.4665 22 14.6667C22 17.6122 20.0424 20 17.1356 20H6.44444C3.82836 20 2 17.851 2 15.2C2 13.1078 3.32099 11.3282 5.16392 10.671C5.15992 10.5811 5.15789 10.4908 5.15789 10.4C5.15789 6.86538 8.22121 4 12 4Z" fill="#363853" fill-opacity="0.15"/>
<path d="M17.1356 20C20.0424 20 22 17.6122 22 14.6667C22 12.4665 20.6853 10.5776 18.8086 9.76241C18.4665 6.52713 15.5488 4 12 4C8.22121 4 5.15789 6.86538 5.15789 10.4C5.15789 10.4908 5.15992 10.5811 5.16392 10.671C3.32099 11.3282 2 13.1078 2 15.2C2 17.851 3.82836 20 6.44444 20" stroke="#363853" stroke-width="1.5" stroke-linecap="round"/>
<path d="M13.5 16L10.5 19H13.5L10.5 22" stroke="#363853" stroke-width="1.5" stroke-linecap="round" stroke-linejoin="round"/>
</svg>
