<svg width="24" height="24" viewBox="0 0 24 24" fill="none" xmlns="http://www.w3.org/2000/svg">
<path d="M3.9074 15.3487C2.69753 13.2818 2.69753 10.7182 3.9074 8.65133C6.85873 3.60935 13.3095 2.66645 17.5697 5.82263L17.8273 6.08022L14.4844 9.47616L9.46261 14.5777L6.12501 17.9682L5.96835 17.8116C5.17814 17.1436 4.47748 16.3226 3.9074 15.3487Z" fill="#363853" fill-opacity="0.15"/>
<path d="M20.7399 8.27246C20.5306 7.91498 20.0712 7.79482 19.7137 8.00407C19.3563 8.21332 19.2361 8.67274 19.4453 9.03021L20.7399 8.27246ZM20.0926 15.3487L19.4453 14.9698L20.0926 15.3487ZM9.16464 18.7776C8.77297 18.6427 8.34619 18.851 8.21137 19.2426C8.07656 19.6343 8.28478 20.0611 8.67645 20.1959L9.16464 18.7776ZM3.9074 15.3487L4.55466 14.9698L3.9074 15.3487ZM3.9074 8.65133L4.55466 9.03021L3.9074 8.65133ZM5.96835 17.8116L6.49868 17.2813L6.4765 17.2591L6.45255 17.2388L5.96835 17.8116ZM17.5697 5.82263L18.1 5.2923L18.0608 5.25304L18.0162 5.22L17.5697 5.82263ZM14.4338 9.42557L14.9641 8.89524C14.96 8.89105 14.9557 8.88691 14.9514 8.88282L14.4338 9.42557ZM9.3133 14.4284L8.7432 14.9157C8.75589 14.9305 8.76916 14.9449 8.78297 14.9587L9.3133 14.4284ZM16.3067 12.0607C16.3067 11.6465 15.9709 11.3107 15.5567 11.3107C15.1425 11.3107 14.8067 11.6465 14.8067 12.0607H16.3067ZM11.9994 14.9233C11.5852 14.9233 11.2494 15.2591 11.2494 15.6733C11.2494 16.0875 11.5852 16.4233 11.9994 16.4233V14.9233ZM4.15301 18.9024C3.86243 19.1976 3.86617 19.6725 4.16136 19.9631C4.45655 20.2536 4.93141 20.2499 5.22199 19.9547L4.15301 18.9024ZM20.4095 4.52614C20.7001 4.23095 20.6963 3.75609 20.4011 3.46551C20.1059 3.17493 19.6311 3.17867 19.3405 3.47386L20.4095 4.52614ZM17.8273 6.08022L18.3618 6.60635L17.8273 6.08022ZM19.4453 9.03021C20.5182 10.8631 20.5182 13.1369 19.4453 14.9698L20.7399 15.7275C22.0867 13.4266 22.0867 10.5734 20.7399 8.27246L19.4453 9.03021ZM19.4453 14.9698C17.2217 18.7686 12.8404 20.0427 9.16464 18.7776L8.67645 20.1959C12.9744 21.6752 18.1274 20.1907 20.7399 15.7275L19.4453 14.9698ZM4.55466 14.9698C3.48178 13.1369 3.48178 10.8631 4.55466 9.03021L3.26013 8.27246C1.91329 10.5734 1.91329 13.4266 3.26013 15.7275L4.55466 14.9698ZM6.45255 17.2388C5.72734 16.6258 5.08181 15.8704 4.55466 14.9698L3.26013 15.7275C3.87315 16.7748 4.62893 17.6614 5.48415 18.3843L6.45255 17.2388ZM4.55466 9.03021C7.26824 4.3944 13.2017 3.51996 17.1232 6.42527L18.0162 5.22C13.4173 1.81293 6.44922 2.8243 3.26013 8.27246L4.55466 9.03021ZM9.19331 12.0607C9.19331 10.467 10.4606 9.19699 11.9994 9.19699V7.69699C9.60973 7.69699 7.69331 9.66125 7.69331 12.0607H9.19331ZM11.9994 9.19699C12.7392 9.19699 13.4126 9.48802 13.9162 9.96831L14.9514 8.88282C14.1822 8.14925 13.1429 7.69699 11.9994 7.69699V9.19699ZM9.8834 13.941C9.45402 13.4387 9.19331 12.7825 9.19331 12.0607H7.69331C7.69331 13.1505 8.08864 14.15 8.7432 14.9157L9.8834 13.941ZM14.8067 12.0607C14.8067 13.6528 13.5387 14.9233 11.9994 14.9233V16.4233C14.3887 16.4233 16.3067 14.4595 16.3067 12.0607H14.8067ZM5.59052 17.4421L4.15301 18.9024L5.22199 19.9547L6.6595 18.4944L5.59052 17.4421ZM5.43802 18.3419L5.59468 18.4986L6.65534 17.4379L6.49868 17.2813L5.43802 18.3419ZM8.92812 14.0515L5.59052 17.4421L6.6595 18.4944L9.99709 15.1038L8.92812 14.0515ZM8.78297 14.9587L8.93228 15.108L9.99294 14.0473L9.84363 13.898L8.78297 14.9587ZM13.9499 8.95002L8.92812 14.0515L9.99709 15.1038L15.0189 10.0023L13.9499 8.95002ZM13.9035 9.9559L13.9541 10.0065L15.0147 8.94583L14.9641 8.89524L13.9035 9.9559ZM19.3405 3.47386L17.2928 5.55408L18.3618 6.60635L20.4095 4.52614L19.3405 3.47386ZM17.2928 5.55408L13.9499 8.95002L15.0189 10.0023L18.3618 6.60635L17.2928 5.55408ZM17.0394 6.35296L17.297 6.61055L18.3576 5.54989L18.1 5.2923L17.0394 6.35296Z" fill="#363853"/>
</svg>
