<svg width="24" height="24" viewBox="0 0 24 24" fill="none" xmlns="http://www.w3.org/2000/svg">
<path d="M3.36241 10.7032C3.93895 8.52447 5.6993 6.82847 7.89677 6.37155C10.2737 5.87731 12.7263 5.87731 15.1032 6.37155C17.3007 6.82847 19.0611 8.52447 19.6376 10.7032C20.1165 12.513 20.1229 14.4414 19.644 16.2511C19.0585 18.464 17.279 20.1547 15.0471 20.6188L14.8918 20.6511C12.6543 21.1163 10.3457 21.1163 8.10824 20.6511L7.95287 20.6188C5.72102 20.1547 3.94153 18.464 3.35597 16.2511C2.87707 14.4414 2.88351 12.513 3.36241 10.7032Z" fill="#363853" fill-opacity="0.15"/>
<path d="M3.01146 12.9952V7.25212C3.01146 5.3599 4.29687 3.69319 6.11272 3.19064C6.56583 3.06524 7.03975 3 7.50974 3H8.3677C10.0489 3 12.0221 4.31117 12.7463 6.04481C11.54 6.04503 9.08417 6.12466 7.89677 6.37155C5.6993 6.82847 3.93895 8.52447 3.36241 10.7032C3.16414 11.4525 3.04685 12.2221 3.01146 12.9952Z" fill="#363853" fill-opacity="0.15"/>
<path d="M3.01146 13.9964V14.0138L3.0124 14.0164C3.01208 14.0097 3.01177 14.0031 3.01146 13.9964Z" fill="#363853" fill-opacity="0.15"/>
<path d="M3.35597 16.2511L2.63093 16.443L3.35597 16.2511ZM3.36241 10.7032L2.63736 10.5114L3.36241 10.7032ZM19.6376 10.7032L20.3626 10.5114L19.6376 10.7032ZM19.644 16.2511L20.3691 16.443L19.644 16.2511ZM14.8918 20.6511L15.0445 21.3854L15.0445 21.3854L14.8918 20.6511ZM8.10824 20.6511L7.95555 21.3854H7.95556L8.10824 20.6511ZM7.89677 6.37155L8.04945 7.10585V7.10584L7.89677 6.37155ZM15.1032 6.37155L14.9506 7.10584L15.1032 6.37155ZM7.95287 20.6188L8.10555 19.8845H8.10555L7.95287 20.6188ZM15.0471 20.6188L14.8945 19.8845L14.8944 19.8845L15.0471 20.6188ZM3.01146 12.9952H2.26146L3.76068 13.0295L3.01146 12.9952ZM6.11272 3.19064L5.91267 2.46781H5.91267L6.11272 3.19064ZM12.7463 6.04481L12.7464 6.79481L13.8723 6.7946L13.4383 5.75571L12.7463 6.04481ZM3.01146 13.9964L3.76067 13.9621L2.26146 13.9964H3.01146ZM3.01146 14.0138H2.26146V14.1441L2.30541 14.2667L3.01146 14.0138ZM3.0124 14.0164L2.30634 14.2694L3.76154 13.9807L3.0124 14.0164ZM14.2341 8.02943C13.8256 7.96103 13.439 8.23675 13.3706 8.64528C13.3022 9.0538 13.5779 9.44043 13.9864 9.50883L14.2341 8.02943ZM14.1529 8.77627L14.2767 8.03656L14.2767 8.03656L14.1529 8.77627ZM16.4926 12.4404C16.4926 12.8546 16.8283 13.1904 17.2426 13.1904C17.6568 13.1904 17.9926 12.8546 17.9926 12.4404H16.4926ZM14.8944 19.8845L14.7391 19.9168L15.0445 21.3854L15.1998 21.3531L14.8944 19.8845ZM8.26092 19.9168L8.10555 19.8845L7.80018 21.3531L7.95555 21.3854L8.26092 19.9168ZM4.08102 16.0593C3.63585 14.377 3.64137 12.5808 4.08745 10.8951L2.63736 10.5114C2.12565 12.4451 2.1183 14.5058 2.63093 16.443L4.08102 16.0593ZM18.9125 10.8951C19.3586 12.5808 19.3642 14.377 18.919 16.0593L20.3691 16.443C20.8817 14.5058 20.8744 12.4451 20.3626 10.5114L18.9125 10.8951ZM14.7391 19.9168C12.6023 20.3611 10.3977 20.3611 8.26092 19.9168L7.95556 21.3854C10.2937 21.8715 12.7063 21.8715 15.0445 21.3854L14.7391 19.9168ZM8.04945 7.10585C10.3257 6.63254 12.6743 6.63254 14.9506 7.10584L15.2559 5.63726C12.7782 5.12207 10.2218 5.12207 7.74409 5.63726L8.04945 7.10585ZM8.10555 19.8845C6.15328 19.4785 4.59429 17.9989 4.08102 16.0593L2.63093 16.443C3.28877 18.929 5.28876 20.8309 7.80019 21.3531L8.10555 19.8845ZM15.1998 21.3531C17.7113 20.8309 19.7112 18.929 20.3691 16.443L18.919 16.0593C18.4057 17.9989 16.8467 19.4785 14.8945 19.8845L15.1998 21.3531ZM14.9506 7.10584C16.864 7.5037 18.4071 8.98504 18.9125 10.8951L20.3626 10.5114C19.715 8.0639 17.7374 6.15324 15.2559 5.63726L14.9506 7.10584ZM7.74409 5.63726C5.26258 6.15324 3.28501 8.06389 2.63736 10.5114L4.08745 10.8951C4.59289 8.98504 6.13603 7.5037 8.04945 7.10585L7.74409 5.63726ZM2.26146 7.25212V12.9952H3.76146V7.25212H2.26146ZM5.91267 2.46781C3.77568 3.05924 2.26146 5.0188 2.26146 7.25212H3.76146C3.76146 5.70101 4.81806 4.32714 6.31277 3.91347L5.91267 2.46781ZM7.50974 2.25C6.97122 2.25 6.43004 2.32463 5.91267 2.46781L6.31277 3.91347C6.70162 3.80585 7.10828 3.75 7.50974 3.75V2.25ZM8.3677 2.25H7.50974V3.75H8.3677V2.25ZM13.4383 5.75571C13.0113 4.73343 12.2317 3.86525 11.3401 3.25377C10.4513 2.64429 9.39258 2.25 8.3677 2.25V3.75C9.02406 3.75 9.79247 4.01129 10.4917 4.49081C11.188 4.96832 11.7571 5.62255 12.0542 6.33391L13.4383 5.75571ZM8.04945 7.10584C9.15099 6.8768 11.5333 6.79504 12.7464 6.79481L12.7461 5.29481C11.5467 5.29503 9.01734 5.37251 7.74409 5.63726L8.04945 7.10584ZM3.76068 13.0295C3.79365 12.3091 3.90293 11.5924 4.08745 10.8951L2.63736 10.5114C2.42535 11.3126 2.30005 12.135 2.26225 12.9609L3.76068 13.0295ZM2.26146 13.9964V14.0138H3.76146V13.9964H2.26146ZM2.30541 14.2667L2.30634 14.2694L3.71845 13.7634L3.71752 13.7608L2.30541 14.2667ZM3.76154 13.9807C3.76125 13.9745 3.76096 13.9683 3.76067 13.9621L2.26225 14.0308C2.26258 14.0379 2.26291 14.045 2.26325 14.0521L3.76154 13.9807ZM13.9864 9.50883L14.029 9.51597L14.2767 8.03656L14.2341 8.02943L13.9864 9.50883ZM14.029 9.51597C15.4481 9.75358 16.4926 10.9884 16.4926 12.4404H17.9926C17.9926 10.2606 16.4235 8.39601 14.2767 8.03656L14.029 9.51597Z" fill="#363853"/>
</svg>
