<svg width="24" height="24" viewBox="0 0 24 24" fill="none" xmlns="http://www.w3.org/2000/svg">
<path d="M2.39209 8.61159C3.11597 5.52556 5.52557 3.11597 8.61159 2.39209C10.8403 1.86931 13.1597 1.8693 15.3884 2.39208C18.4744 3.11597 20.884 5.52557 21.6079 8.61159C22.1307 10.8403 22.1307 13.1597 21.6079 15.3884C20.884 18.4744 18.4744 20.884 15.3884 21.6079C13.1597 22.1307 10.8403 22.1307 8.61159 21.6079C5.52557 20.884 3.11597 18.4744 2.39209 15.3884C1.8693 13.1597 1.8693 10.8403 2.39209 8.61159Z" fill="#363853" fill-opacity="0.15"/>
<path d="M20.25 7.5C20.25 7.91421 20.5858 8.25 21 8.25C21.4142 8.25 21.75 7.91421 21.75 7.5H20.25ZM16.5 2.25C16.0858 2.25 15.75 2.58579 15.75 3C15.75 3.41421 16.0858 3.75 16.5 3.75V2.25ZM3.75 16.5C3.75 16.0858 3.41421 15.75 3 15.75C2.58579 15.75 2.25 16.0858 2.25 16.5H3.75ZM7.5 21.75C7.91421 21.75 8.25 21.4142 8.25 21C8.25 20.5858 7.91421 20.25 7.5 20.25V21.75ZM7.5 3.75C7.91421 3.75 8.25 3.41421 8.25 3C8.25 2.58579 7.91421 2.25 7.5 2.25V3.75ZM2.25 7.5C2.25 7.91421 2.58579 8.25 3 8.25C3.41421 8.25 3.75 7.91421 3.75 7.5H2.25ZM16.5 20.25C16.0858 20.25 15.75 20.5858 15.75 21C15.75 21.4142 16.0858 21.75 16.5 21.75V20.25ZM21.75 16.5C21.75 16.0858 21.4142 15.75 21 15.75C20.5858 15.75 20.25 16.0858 20.25 16.5H21.75ZM6.6329 11.8771C6.25438 12.0454 6.08391 12.4886 6.25214 12.8671C6.42037 13.2456 6.86359 13.4161 7.2421 13.2479L6.6329 11.8771ZM7.88785 12.1401L8.19245 12.8255H8.19245L7.88785 12.1401ZM16.1122 12.1401L15.8075 12.8255H15.8075L16.1122 12.1401ZM16.7579 13.2479C17.1364 13.4161 17.5796 13.2456 17.7479 12.8671C17.9161 12.4886 17.7456 12.0454 17.3671 11.8771L16.7579 13.2479ZM21.75 7.5C21.75 4.6005 19.3995 2.25 16.5 2.25V3.75C18.5711 3.75 20.25 5.42893 20.25 7.5H21.75ZM2.25 16.5C2.25 19.3995 4.6005 21.75 7.5 21.75V20.25C5.42893 20.25 3.75 18.5711 3.75 16.5H2.25ZM7.5 2.25C4.6005 2.25 2.25 4.6005 2.25 7.5H3.75C3.75 5.42893 5.42893 3.75 7.5 3.75V2.25ZM16.5 21.75C19.3995 21.75 21.75 19.3995 21.75 16.5H20.25C20.25 18.5711 18.5711 20.25 16.5 20.25V21.75ZM7.2421 13.2479L8.19245 12.8255L7.58324 11.4548L6.6329 11.8771L7.2421 13.2479ZM15.8075 12.8255L16.7579 13.2479L17.3671 11.8771L16.4168 11.4548L15.8075 12.8255ZM8.19245 12.8255C10.6165 11.7481 13.3835 11.7481 15.8075 12.8255L16.4168 11.4548C13.6049 10.205 10.3951 10.205 7.58324 11.4548L8.19245 12.8255Z" fill="#363853"/>
</svg>
