<svg width="24" height="24" viewBox="0 0 24 24" fill="none" xmlns="http://www.w3.org/2000/svg">
<path d="M4.6531 17.0463L5.34731 16.7624H5.34731L4.6531 17.0463ZM4.30609 11.4453L3.58237 11.2485L3.58237 11.2485L4.30609 11.4453ZM19.6939 11.4453L20.4176 11.2485V11.2485L19.6939 11.4453ZM19.3469 17.0463L18.6527 16.7624V16.7624L19.3469 17.0463ZM14.0365 20.8426L13.9211 20.1016H13.9211L14.0365 20.8426ZM9.96352 20.8426L10.0788 20.1016H10.0788L9.96352 20.8426ZM8.08242 7.78546L7.93367 7.05036L8.08242 7.78546ZM15.9176 7.78546L15.7688 8.52056L15.9176 7.78546ZM9.21479 20.7261L9.09946 21.4672H9.09947L9.21479 20.7261ZM4.74599 17.2735L4.05177 17.5573H4.05177L4.74599 17.2735ZM14.7852 20.7261L14.9005 21.4672H14.9005L14.7852 20.7261ZM19.254 17.2735L19.9482 17.5573V17.5573L19.254 17.2735ZM19.6174 11.1639L18.8937 11.3606L18.8937 11.3606L19.6174 11.1639ZM4.38262 11.1639L5.10635 11.3606L5.10635 11.3606L4.38262 11.1639ZM14.6699 19.985L13.9211 20.1016L14.1518 21.5837L14.9005 21.4672L14.6699 19.985ZM10.0788 20.1016L9.33011 19.985L9.09947 21.4672L9.84819 21.5837L10.0788 20.1016ZM18.8937 11.3606L18.9702 11.6421L20.4176 11.2485L20.3411 10.9671L18.8937 11.3606ZM18.6527 16.7624L18.5598 16.9896L19.9482 17.5573L20.0411 17.3301L18.6527 16.7624ZM5.4402 16.9896L5.34731 16.7624L3.95889 17.3301L4.05177 17.5573L5.4402 16.9896ZM5.02981 11.6421L5.10635 11.3606L3.6589 10.9671L3.58237 11.2485L5.02981 11.6421ZM5.34731 16.7624C4.67945 15.1291 4.56875 13.3378 5.02981 11.6421L3.58237 11.2485C3.03448 13.2635 3.16667 15.3926 3.95889 17.3301L5.34731 16.7624ZM18.9702 11.6421C19.4313 13.3378 19.3205 15.1291 18.6527 16.7624L20.0411 17.3301C20.8333 15.3926 20.9655 13.2635 20.4176 11.2485L18.9702 11.6421ZM13.9211 20.1016C12.6488 20.2996 11.3512 20.2996 10.0788 20.1016L9.84819 21.5837C11.2734 21.8055 12.7266 21.8055 14.1518 21.5837L13.9211 20.1016ZM8.23117 8.52056C10.7161 8.01772 13.2839 8.01772 15.7688 8.52056L16.0663 7.05036C13.3851 6.50779 10.6149 6.50779 7.93367 7.05036L8.23117 8.52056ZM9.33011 19.985C7.55413 19.7087 6.08232 18.56 5.4402 16.9896L4.05177 17.5573C4.9021 19.6369 6.82848 21.1138 9.09946 21.4672L9.33011 19.985ZM14.9005 21.4672C17.1715 21.1138 19.0979 19.6369 19.9482 17.5573L18.5598 16.9896C17.9177 18.56 16.4458 19.7087 14.6699 19.985L14.9005 21.4672ZM15.7688 8.52056C17.3088 8.83218 18.5082 9.94307 18.8937 11.3606L20.3411 10.9671C19.7992 8.97405 18.1334 7.46864 16.0663 7.05036L15.7688 8.52056ZM7.93367 7.05036C5.86662 7.46864 4.20082 8.97405 3.6589 10.9671L5.10635 11.3606C5.4918 9.94307 6.69121 8.83218 8.23117 8.52056L7.93367 7.05036Z" fill="#363853"/>
<path d="M15.1775 8.02577L14.4909 7.72404L14.4909 7.72404L15.1775 8.02577ZM14.2779 8.2088C14.1112 8.58802 14.2836 9.03052 14.6628 9.19716C15.042 9.3638 15.4845 9.19148 15.6511 8.81226L14.2779 8.2088ZM8.82249 8.02577L9.50912 7.72404L9.50912 7.72404L8.82249 8.02577ZM8.34889 8.81226C8.51553 9.19148 8.95803 9.3638 9.33725 9.19716C9.71646 9.03052 9.88879 8.58802 9.72214 8.2088L8.34889 8.81226ZM11.2429 3.0742L11.3691 3.81351L11.3691 3.81351L11.2429 3.0742ZM11.3604 3.05415L11.2342 2.31484L11.2342 2.31484L11.3604 3.05415ZM12.6396 3.05415L12.5134 3.79346L12.5134 3.79346L12.6396 3.05415ZM12.7571 3.0742L12.8833 2.33489L12.8833 2.33489L12.7571 3.0742ZM15.4254 5.54836L16.1579 5.38741L15.4254 5.54836ZM8.57467 5.54836L9.3072 5.70931V5.70931L8.57467 5.54836ZM14.4909 7.72404L14.2779 8.2088L15.6511 8.81226L15.8642 8.3275L14.4909 7.72404ZM8.13587 8.3275L8.34889 8.81226L9.72214 8.2088L9.50912 7.72404L8.13587 8.3275ZM11.3691 3.81351L11.4866 3.79346L11.2342 2.31484L11.1168 2.33489L11.3691 3.81351ZM12.5134 3.79346L12.6309 3.81351L12.8833 2.33489L12.7658 2.31484L12.5134 3.79346ZM14.6928 5.70931C14.8411 6.38397 14.7712 7.08613 14.4909 7.72404L15.8642 8.3275C16.2716 7.40023 16.3747 6.37415 16.1579 5.38741L14.6928 5.70931ZM7.84215 5.38741C7.62534 6.37415 7.72839 7.40024 8.13587 8.3275L9.50912 7.72404C9.2288 7.08613 9.15896 6.38397 9.3072 5.70931L7.84215 5.38741ZM11.4866 3.79346C11.8261 3.73551 12.1739 3.73551 12.5134 3.79346L12.7658 2.31484C12.2592 2.22839 11.7408 2.22839 11.2342 2.31484L11.4866 3.79346ZM16.1579 5.38741C15.8102 3.80521 14.5013 2.61105 12.8833 2.33489L12.6309 3.81351C13.6808 3.99271 14.4835 4.75649 14.6928 5.70931L16.1579 5.38741ZM9.3072 5.70931C9.51655 4.75649 10.3192 3.99271 11.3691 3.81351L11.1168 2.33489C9.4987 2.61105 8.18979 3.80521 7.84215 5.38741L9.3072 5.70931Z" fill="#0095FF"/>
</svg>
