<svg width="24" height="24" viewBox="0 0 24 24" fill="none" xmlns="http://www.w3.org/2000/svg">
<path d="M17.5301 9.49985L16.7995 9.66953L17.5301 9.49985ZM17.5301 14.5001L18.2606 14.6698L17.5301 14.5001ZM17.2004 15.55L16.5041 15.2713L16.0933 16.2979L17.199 16.3L17.2004 15.55ZM18.6429 15.5502V16.3002H18.6429L18.6429 15.5502ZM21.9309 12.7307L22.6676 12.8716V12.8716L21.9309 12.7307ZM21.9309 11.2692L22.6676 11.1284V11.1284L21.9309 11.2692ZM17.2004 8.44992L17.199 7.69992L16.0933 7.70208L16.5041 8.72859L17.2004 8.44992ZM16.7995 9.66953C17.1552 11.2007 17.1552 12.7992 16.7995 14.3304L18.2606 14.6698C18.6681 12.9153 18.6681 11.0847 18.2606 9.33017L16.7995 9.66953ZM17.199 16.3C17.3104 16.3002 17.426 16.3002 17.5451 16.3002V14.8002C17.4257 14.8002 17.3116 14.8002 17.2019 14.8L17.199 16.3ZM17.5451 16.3002H18.6429V14.8002H17.5451V16.3002ZM18.6429 16.3002C20.6242 16.3002 22.2909 14.8414 22.6676 12.8716L21.1943 12.5899C20.944 13.8989 19.8584 14.8002 18.6429 14.8002L18.6429 16.3002ZM22.6676 12.8716C22.7776 12.2961 22.7776 11.7038 22.6676 11.1284L21.1943 11.41C21.2687 11.7994 21.2687 12.2005 21.1943 12.5899L22.6676 12.8716ZM22.6676 11.1284C22.2909 9.15851 20.6242 7.69971 18.6429 7.69971V9.19971C19.8584 9.19971 20.944 10.1011 21.1943 11.41L22.6676 11.1284ZM18.6429 7.69971H17.5451V9.19971H18.6429V7.69971ZM17.5451 7.69971C17.426 7.69971 17.3104 7.69971 17.199 7.69992L17.2019 9.19992C17.3116 9.19971 17.4257 9.19971 17.5451 9.19971V7.69971ZM16.5041 8.72859C16.6249 9.03031 16.724 9.34463 16.7995 9.66953L18.2606 9.33017C18.1679 8.93081 18.0458 8.54363 17.8967 8.17126L16.5041 8.72859ZM16.7995 14.3304C16.724 14.6553 16.6249 14.9696 16.5041 15.2713L17.8968 15.8287C18.0458 15.4563 18.1679 15.0691 18.2606 14.6698L16.7995 14.3304Z" fill="#0095FF"/>
<path d="M2.28618 14.5001L3.01674 14.3304L2.28618 14.5001ZM2.28618 9.49988L3.01674 9.66956L2.28618 9.49988ZM17.53 9.49988L16.7994 9.66957L17.53 9.49988ZM17.53 14.5001L16.7994 14.3304L17.53 14.5001ZM12.2757 19.7231L12.1028 18.9933H12.1028L12.2757 19.7231ZM7.54051 19.7231L7.7134 18.9933H7.7134L7.54051 19.7231ZM7.54051 4.27693L7.7134 5.00673V5.00673L7.54051 4.27693ZM12.2757 4.27693L12.1028 5.00673V5.00673L12.2757 4.27693ZM7.30354 19.6669L7.13065 20.3967H7.13066L7.30354 19.6669ZM12.5126 19.6669L12.6855 20.3967H12.6855L12.5126 19.6669ZM12.5126 4.33306L12.6855 3.60326V3.60326L12.5126 4.33306ZM7.30354 4.33306L7.13065 3.60326V3.60326L7.30354 4.33306ZM7.47643 5.06286L7.7134 5.00673L7.36763 3.54712L7.13065 3.60326L7.47643 5.06286ZM12.1028 5.00673L12.3397 5.06286L12.6855 3.60326L12.4485 3.54712L12.1028 5.00673ZM12.3397 18.9371L12.1028 18.9933L12.4485 20.4529L12.6855 20.3967L12.3397 18.9371ZM7.7134 18.9933L7.47642 18.9371L7.13066 20.3967L7.36763 20.4529L7.7134 18.9933ZM3.01674 14.3304C2.66109 12.7992 2.66109 11.2008 3.01674 9.66956L1.55563 9.3302C1.14812 11.0847 1.14812 12.9153 1.55563 14.6698L3.01674 14.3304ZM16.7994 9.66957C17.1551 11.2008 17.1551 12.7992 16.7994 14.3304L18.2605 14.6698C18.668 12.9153 18.668 11.0847 18.2605 9.3302L16.7994 9.66957ZM12.1028 18.9933C10.6578 19.3356 9.15836 19.3356 7.7134 18.9933L7.36763 20.4529C9.03996 20.849 10.7762 20.849 12.4485 20.4529L12.1028 18.9933ZM7.7134 5.00673C9.15836 4.66442 10.6578 4.66442 12.1028 5.00673L12.4485 3.54712C10.7762 3.15096 9.03995 3.15096 7.36763 3.54712L7.7134 5.00673ZM7.47643 18.9371C5.29311 18.4199 3.55465 16.6464 3.01674 14.3304L1.55563 14.6698C2.21572 17.5118 4.36471 19.7415 7.13065 20.3967L7.47643 18.9371ZM12.6855 20.3967C15.4515 19.7415 17.6004 17.5118 18.2605 14.6698L16.7994 14.3304C16.2615 16.6464 14.5231 18.4199 12.3397 18.9371L12.6855 20.3967ZM12.3397 5.06286C14.5231 5.58008 16.2615 7.35361 16.7994 9.66957L18.2605 9.3302C17.6004 6.48823 15.4515 4.2585 12.6855 3.60326L12.3397 5.06286ZM7.13065 3.60326C4.36471 4.2585 2.21572 6.48822 1.55563 9.3302L3.01674 9.66956C3.55465 7.3536 5.29311 5.58008 7.47643 5.06286L7.13065 3.60326Z" fill="#363853"/>
<path d="M12.0724 10.2249C12.0724 9.81064 11.7366 9.47485 11.3224 9.47485C10.9082 9.47485 10.5724 9.81064 10.5724 10.2249H12.0724ZM10.5724 13.7751C10.5724 14.1893 10.9082 14.5251 11.3224 14.5251C11.7366 14.5251 12.0724 14.1893 12.0724 13.7751H10.5724ZM8.67822 10.5799C8.67822 10.1657 8.34244 9.82988 7.92822 9.82988C7.51401 9.82988 7.17822 10.1657 7.17822 10.5799H8.67822ZM7.17822 13.4201C7.17822 13.8343 7.51401 14.1701 7.92822 14.1701C8.34244 14.1701 8.67822 13.8343 8.67822 13.4201H7.17822ZM10.5724 10.2249V13.7751H12.0724V10.2249H10.5724ZM7.17822 10.5799V13.4201H8.67822V10.5799H7.17822Z" fill="#0095FF"/>
</svg>
