<svg width="24" height="24" viewBox="0 0 24 24" fill="none" xmlns="http://www.w3.org/2000/svg">
<path d="M11.8316 7.35917C11.3457 5.7041 9.86383 4.5 8.11112 4.5C5.96334 4.5 4.22223 6.30808 4.22223 8.53846C4.22223 9.32984 4.44143 10.0681 4.82023 10.6912" stroke="#0095FF" stroke-width="1.5"/>
<path d="M22 12.9413C22 16.5635 19.0152 19.5 15.3333 19.5L15.3294 19.5H6.6759C6.67283 19.5 6.66975 19.5 6.66667 19.5C4.08934 19.5 2 17.4445 2 14.9089C2 12.3733 4.08934 10.3178 6.66667 10.3178C7.27489 10.3178 7.85594 10.4323 8.38876 10.6405C8.71109 10.7665 9.08794 10.6144 9.23366 10.2903C10.2687 7.98859 12.6104 6.38257 15.3333 6.38257C19.0152 6.38257 22 9.319 22 12.9413Z" stroke="#363853" stroke-width="1.5"/>
</svg>
