<svg width="24" height="24" viewBox="0 0 24 24" fill="none" xmlns="http://www.w3.org/2000/svg">
<path d="M18.2748 15.8056V15.0556V15.8056ZM21.4142 11.7908L20.6809 11.9479L20.6809 11.9479L21.4142 11.7908ZM21.4253 11.8423L22.1586 11.6852L22.1586 11.6851L21.4253 11.8423ZM21.4253 13.2534L20.6919 13.0963L21.4253 13.2534ZM18.3274 9.29016V8.54016V9.29016ZM17.2998 15.8056L16.5739 15.6171L16.3302 16.5556H17.2998V15.8056ZM17.9188 9.29016V8.54016H17.1187L17.1704 9.33857L17.9188 9.29016ZM18.2748 15.0556H17.7859V16.5556H18.2748V15.0556ZM20.6809 11.9479L20.6919 11.9995L22.1586 11.6851L22.1476 11.6336L20.6809 11.9479ZM20.6919 11.9995C20.7694 12.3609 20.7694 12.7348 20.6919 13.0963L22.1586 13.4106C22.2805 12.8419 22.2805 12.2538 22.1586 11.6852L20.6919 11.9995ZM18.2748 16.5556C20.1486 16.5556 21.7657 15.2439 22.1586 13.4106L20.6919 13.0963C20.4467 14.2406 19.4386 15.0556 18.2748 15.0556V16.5556ZM18.3274 10.0402C19.4605 10.0402 20.4421 10.8337 20.6809 11.9479L22.1476 11.6336C21.7611 9.83034 20.1705 8.54016 18.3274 8.54016V10.0402ZM17.7859 15.0556H17.2998V16.5556H17.7859V15.0556ZM17.1704 9.33857C17.3069 11.4496 17.1056 13.5694 16.5739 15.6171L18.0257 15.9941C18.5976 13.7918 18.8141 11.5121 18.6672 9.24175L17.1704 9.33857ZM18.3274 8.54016H17.9188V10.0402H18.3274V8.54016Z" fill="#0095FF"/>
<path d="M7.27344 3.22264L7.16016 2.48124V2.48124L7.27344 3.22264ZM13.1359 3.22264L13.2491 2.48125L13.1359 3.22264ZM12.8338 20.7684L12.9649 21.5069L12.8338 20.7684ZM7.57549 20.7684L7.70658 20.03L7.70658 20.03L7.57549 20.7684ZM3.54889 17.301L4.26554 17.0798L3.54889 17.301ZM2.6595 7.60631L1.91457 7.51925V7.51925L2.6595 7.60631ZM17.8223 8.22692L17.0774 8.31399V8.31399L17.8223 8.22692ZM17.0446 16.7041L16.328 16.4829L16.328 16.4829L17.0446 16.7041ZM2.69573 7.29633L3.44066 7.3834L3.44066 7.3834L2.69573 7.29633ZM6.50788 3.33961L6.62115 4.08101L6.50788 3.33961ZM7.44142 20.7446L7.31032 21.4831L7.31033 21.4831L7.44142 20.7446ZM16.9007 17.1706L17.6173 17.3918L17.6173 17.3918L16.9007 17.1706ZM17.739 7.51366L18.4839 7.4266V7.4266L17.739 7.51366ZM13.6857 3.30665L13.5724 4.04805L13.6857 3.30665ZM17.2998 15.8057L16.5739 15.6172L17.2998 15.8057ZM17.9188 9.29022L17.1704 9.33863L17.9188 9.29022ZM16.994 7.60073L17.0774 8.31399L18.5673 8.13986L18.4839 7.4266L16.994 7.60073ZM16.328 16.4829L16.184 16.9494L17.6173 17.3918L17.7613 16.9253L16.328 16.4829ZM3.40443 7.69338L3.44066 7.3834L1.9508 7.20926L1.91457 7.51925L3.40443 7.69338ZM7.70658 20.03L7.57251 20.0062L7.31033 21.4831L7.4444 21.5069L7.70658 20.03ZM6.62115 4.08101L7.38671 3.96404L7.16016 2.48124L6.3946 2.59821L6.62115 4.08101ZM13.0226 3.96404L13.5724 4.04805L13.799 2.56525L13.2491 2.48125L13.0226 3.96404ZM7.38671 3.96404C9.25456 3.67865 11.1547 3.67865 13.0226 3.96404L13.2491 2.48125C11.2311 2.17292 9.17817 2.17292 7.16016 2.48124L7.38671 3.96404ZM12.7027 20.03C11.0502 20.3233 9.35911 20.3233 7.70658 20.03L7.44439 21.5069C9.27036 21.831 11.1389 21.831 12.9649 21.5069L12.7027 20.03ZM4.26554 17.0798C3.32903 14.0455 3.0357 10.8482 3.40443 7.69338L1.91457 7.51925C1.52163 10.8812 1.83421 14.2884 2.83225 17.5222L4.26554 17.0798ZM3.44066 7.3834C3.63875 5.68851 4.94189 4.33758 6.62115 4.08101L6.3946 2.59821C4.04519 2.95717 2.22702 4.84591 1.9508 7.20926L3.44066 7.3834ZM2.83225 17.5222C3.46678 19.5781 5.1945 21.1075 7.31032 21.4831L7.57252 20.0062C6.01169 19.7291 4.73482 18.6003 4.26554 17.0798L2.83225 17.5222ZM16.184 16.9494C15.69 18.55 14.3459 19.7383 12.7027 20.03L12.9649 21.5069C15.1631 21.1166 16.9581 19.5278 17.6173 17.3918L16.184 16.9494ZM18.4839 7.4266C18.1927 4.93489 16.2758 2.94369 13.799 2.56525L13.5724 4.04805C15.3791 4.32409 16.781 5.77749 16.994 7.60073L18.4839 7.4266ZM16.5739 15.6172C16.4985 15.9073 16.4166 16.1959 16.328 16.4829L17.7613 16.9253C17.8565 16.6166 17.9447 16.3062 18.0257 15.9942L16.5739 15.6172ZM17.0774 8.31399C17.1173 8.65508 17.1483 8.99674 17.1704 9.33863L18.6672 9.24181C18.6435 8.87413 18.6101 8.50669 18.5673 8.13986L17.0774 8.31399ZM17.1704 9.33863C17.3069 11.4497 17.1056 13.5694 16.5739 15.6172L18.0257 15.9942C18.5976 13.7918 18.8141 11.5122 18.6672 9.24181L17.1704 9.33863Z" fill="#363853"/>
<path d="M6 11.5V12.2639C6 13.7344 6.34237 15.1847 7 16.5" stroke="#0095FF" stroke-width="1.5" stroke-linecap="round"/>
</svg>
