<svg width="24" height="24" viewBox="0 0 24 24" fill="none" xmlns="http://www.w3.org/2000/svg">
<path d="M3.68767 9.06846C4.31394 6.39856 6.39862 4.31388 9.06852 3.6876C10.9967 3.23532 13.0034 3.23532 14.9315 3.6876C17.6014 4.31388 19.6861 6.39856 20.3124 9.06846C20.7647 10.9966 20.7647 13.0033 20.3124 14.9315C19.6861 17.6014 17.6014 19.6861 14.9315 20.3123C13.0034 20.7646 10.9967 20.7646 9.06852 20.3123C6.39862 19.6861 4.31394 17.6014 3.68767 14.9315C3.23538 13.0033 3.23538 10.9966 3.68767 9.06846Z" stroke="#363853" stroke-width="1.5"/>
<path d="M9 9H13M9 15H12M9 12H15" stroke="#0095FF" stroke-width="1.5" stroke-linecap="round"/>
</svg>
