<svg width="24" height="24" viewBox="0 0 24 24" fill="none" xmlns="http://www.w3.org/2000/svg">
<path d="M18.0107 3H5.98914C4.37533 3 3.43557 4.8362 4.37175 6.16022L8.47149 11.9583C8.95056 12.6359 9.20801 13.447 9.20801 14.2788V18.3293C9.20801 19.8043 10.3952 21 11.8596 21C13.324 21 14.5111 19.8043 14.5111 18.3293V14.3385C14.5111 13.4698 14.7919 12.6247 15.311 11.931L19.5965 6.20375C20.5826 4.88587 19.6491 3 18.0107 3Z" stroke="#0095FF" stroke-width="1.5" stroke-linecap="round" stroke-linejoin="round"/>
<path d="M14.5111 14.0949C14.5111 13.2449 14.7919 12.418 15.311 11.7392L19.5965 6.13493C20.5826 4.84536 19.6491 3 18.0107 3H5.98914C4.37533 3 3.43557 4.79676 4.37175 6.09233L8.47149 11.7659C8.95056 12.4289 9.20801 13.2226 9.20801 14.0365V18" stroke="#363853" stroke-width="1.5" stroke-linecap="round" stroke-linejoin="round"/>
</svg>
