<svg width="24" height="24" viewBox="0 0 24 24" fill="none" xmlns="http://www.w3.org/2000/svg">
<path d="M3.85597 16.2511L3.13093 16.443L3.85597 16.2511ZM3.86241 10.7032L3.13736 10.5114L3.86241 10.7032ZM20.1376 10.7032L20.8626 10.5114L20.1376 10.7032ZM20.144 16.2511L20.8691 16.443L20.144 16.2511ZM15.3918 20.6511L15.5445 21.3854L15.5445 21.3854L15.3918 20.6511ZM8.60824 20.6511L8.45555 21.3854H8.45556L8.60824 20.6511ZM8.39677 6.37155L8.54945 7.10585V7.10584L8.39677 6.37155ZM15.6032 6.37155L15.4506 7.10584L15.6032 6.37155ZM8.45287 20.6188L8.60555 19.8845H8.60555L8.45287 20.6188ZM15.5471 20.6188L15.3945 19.8845L15.3944 19.8845L15.5471 20.6188ZM3.51146 12.9952H2.76146L4.26068 13.0295L3.51146 12.9952ZM6.61272 3.19064L6.41267 2.46781H6.41267L6.61272 3.19064ZM13.2463 6.04481L13.2464 6.79481L14.3723 6.7946L13.9383 5.75571L13.2463 6.04481ZM3.51146 13.9964L4.26067 13.9621L2.76146 13.9964H3.51146ZM3.51146 14.0138H2.76146V14.1441L2.80541 14.2667L3.51146 14.0138ZM3.5124 14.0164L2.80634 14.2694L4.26154 13.9807L3.5124 14.0164ZM15.3944 19.8845L15.2391 19.9168L15.5445 21.3854L15.6998 21.3531L15.3944 19.8845ZM8.76092 19.9168L8.60555 19.8845L8.30018 21.3531L8.45555 21.3854L8.76092 19.9168ZM4.58102 16.0593C4.13585 14.377 4.14137 12.5808 4.58745 10.8951L3.13736 10.5114C2.62565 12.4451 2.6183 14.5058 3.13093 16.443L4.58102 16.0593ZM19.4125 10.8951C19.8586 12.5808 19.8642 14.377 19.419 16.0593L20.8691 16.443C21.3817 14.5058 21.3744 12.4451 20.8626 10.5114L19.4125 10.8951ZM15.2391 19.9168C13.1023 20.3611 10.8977 20.3611 8.76092 19.9168L8.45556 21.3854C10.7937 21.8715 13.2063 21.8715 15.5445 21.3854L15.2391 19.9168ZM8.54945 7.10585C10.8257 6.63254 13.1743 6.63254 15.4506 7.10584L15.7559 5.63726C13.2782 5.12207 10.7218 5.12207 8.24409 5.63726L8.54945 7.10585ZM8.60555 19.8845C6.65328 19.4785 5.09429 17.9989 4.58102 16.0593L3.13093 16.443C3.78877 18.929 5.78876 20.8309 8.30019 21.3531L8.60555 19.8845ZM15.6998 21.3531C18.2113 20.8309 20.2112 18.929 20.8691 16.443L19.419 16.0593C18.9057 17.9989 17.3467 19.4785 15.3945 19.8845L15.6998 21.3531ZM15.4506 7.10584C17.364 7.5037 18.9071 8.98504 19.4125 10.8951L20.8626 10.5114C20.215 8.0639 18.2374 6.15324 15.7559 5.63726L15.4506 7.10584ZM8.24409 5.63726C5.76258 6.15324 3.78501 8.06389 3.13736 10.5114L4.58745 10.8951C5.09289 8.98504 6.63603 7.5037 8.54945 7.10585L8.24409 5.63726ZM2.76146 7.25212V12.9952H4.26146V7.25212H2.76146ZM6.41267 2.46781C4.27568 3.05924 2.76146 5.0188 2.76146 7.25212H4.26146C4.26146 5.70101 5.31806 4.32714 6.81277 3.91347L6.41267 2.46781ZM8.00974 2.25C7.47122 2.25 6.93004 2.32463 6.41267 2.46781L6.81277 3.91347C7.20162 3.80585 7.60828 3.75 8.00974 3.75V2.25ZM8.8677 2.25H8.00974V3.75H8.8677V2.25ZM13.9383 5.75571C13.5113 4.73343 12.7317 3.86525 11.8401 3.25377C10.9513 2.64429 9.89258 2.25 8.8677 2.25V3.75C9.52406 3.75 10.2925 4.01129 10.9917 4.49081C11.688 4.96832 12.2571 5.62255 12.5542 6.33391L13.9383 5.75571ZM8.54945 7.10584C9.65099 6.8768 12.0333 6.79504 13.2464 6.79481L13.2461 5.29481C12.0467 5.29503 9.51734 5.37251 8.24409 5.63726L8.54945 7.10584ZM4.26068 13.0295C4.29365 12.3091 4.40293 11.5924 4.58745 10.8951L3.13736 10.5114C2.92535 11.3126 2.80005 12.135 2.76225 12.9609L4.26068 13.0295ZM2.76146 13.9964V14.0138H4.26146V13.9964H2.76146ZM2.80541 14.2667L2.80634 14.2694L4.21845 13.7634L4.21752 13.7608L2.80541 14.2667ZM4.26154 13.9807C4.26125 13.9745 4.26096 13.9683 4.26067 13.9621L2.76225 14.0308C2.76258 14.0379 2.76291 14.045 2.76325 14.0521L4.26154 13.9807Z" fill="#363853"/>
<path d="M14.7341 8.02934C14.3256 7.96094 13.939 8.23666 13.8706 8.64519C13.8022 9.05372 14.0779 9.44034 14.4864 9.50875L14.7341 8.02934ZM14.6529 8.77618L14.7767 8.03648L14.7767 8.03648L14.6529 8.77618ZM16.9926 12.4403C16.9926 12.8545 17.3283 13.1903 17.7426 13.1903C18.1568 13.1903 18.4926 12.8545 18.4926 12.4403H16.9926ZM14.4864 9.50875L14.529 9.51588L14.7767 8.03648L14.7341 8.02934L14.4864 9.50875ZM14.529 9.51588C15.9481 9.75349 16.9926 10.9884 16.9926 12.4403H18.4926C18.4926 10.2605 16.9235 8.39593 14.7767 8.03648L14.529 9.51588Z" fill="#0095FF"/>
</svg>
