<svg width="24" height="24" viewBox="0 0 24 24" fill="none" xmlns="http://www.w3.org/2000/svg">
<path d="M22 17.0208V13.0416L21.9756 12.6779C21.8604 10.9593 21.3378 9.34752 20.4999 7.9502M15.5896 17.8012C15.4203 16.9103 15.4203 15.9944 15.5896 15.1035C15.8616 13.6716 16.8981 12.5183 18.2698 12.121L18.5607 12.0367C18.8632 11.9491 19.176 11.9047 19.4903 11.9047C20.8764 11.9047 22 13.0544 22 14.4727V18.432C22 19.8503 20.8764 21 19.4903 21C19.176 21 18.8632 20.9556 18.5607 20.868L18.2698 20.7837C16.8981 20.3865 15.8616 19.2331 15.5896 17.8012Z" stroke="#0095FF" stroke-width="1.5" stroke-linecap="round"/>
<path d="M1.25003 17.0208C1.25003 17.435 1.58582 17.7708 2.00003 17.7708C2.41425 17.7708 2.75003 17.435 2.75003 17.0208H1.25003ZM2.00003 13.0416L1.25171 12.9914L1.25003 13.0165V13.0416H2.00003ZM2.02441 12.678L2.77273 12.7281L2.02441 12.678ZM10.1659 3.18694L10.3171 3.92154L10.1659 3.18694ZM13.8341 3.18694L13.6829 3.92154L13.8341 3.18694ZM5.73024 12.121L5.93888 11.4006L5.93887 11.4006L5.73024 12.121ZM5.43928 12.0367L5.23064 12.7571H5.23064L5.43928 12.0367ZM2.00004 14.4727H2.75004V14.4727L2.00004 14.4727ZM2.00004 18.4321L2.75004 18.4321V18.4321H2.00004ZM3.02151 20.5L2.5697 21.0987L2.77028 21.2501L3.02157 21.25L3.02151 20.5ZM18.2698 5.3353L18.8002 4.80497L18.7768 4.78163L18.7515 4.76043L18.2698 5.3353ZM22.5303 2.53033C22.8232 2.23744 22.8232 1.76256 22.5303 1.46967C22.2374 1.17678 21.7626 1.17678 21.4697 1.46967L22.5303 2.53033ZM1.46967 21.4697C1.17678 21.7626 1.17678 22.2374 1.46967 22.5303C1.76256 22.8232 2.23744 22.8232 2.53033 22.5303L1.46967 21.4697ZM18.4673 5.53274L18.9976 6.06307L18.4673 5.53274ZM8.29062 14.6328L9.00465 14.4033L8.29062 14.6328ZM2.75003 17.0208V13.0416H1.25003V17.0208H2.75003ZM2.74836 13.0918L2.77273 12.7281L1.27609 12.6278L1.25171 12.9914L2.74836 13.0918ZM10.3171 3.92154C11.428 3.69287 12.5721 3.69287 13.6829 3.92154L13.9854 2.45234C12.675 2.1826 11.3251 2.1826 10.0147 2.45234L10.3171 3.92154ZM2.77273 12.7281C3.06455 8.37463 6.1637 4.77651 10.3171 3.92154L10.0147 2.45234C5.18031 3.44749 1.6116 7.62249 1.27609 12.6278L2.77273 12.7281ZM5.93887 11.4006L5.64792 11.3163L5.23064 12.7571L5.5216 12.8414L5.93887 11.4006ZM5.64792 11.3163C5.2778 11.2092 4.89475 11.1547 4.50972 11.1547V12.6547C4.75331 12.6547 4.99589 12.6891 5.23064 12.7571L5.64792 11.3163ZM4.50972 11.1547C2.6933 11.1547 1.25003 12.6566 1.25004 14.4727L2.75004 14.4727C2.75004 13.4523 3.55401 12.6547 4.50972 12.6547V11.1547ZM5.5216 12.8414C6.49238 13.1226 7.26152 13.8819 7.57659 14.8623L9.00465 14.4033C8.54171 12.9628 7.40373 11.8249 5.93888 11.4006L5.5216 12.8414ZM1.25004 14.4727L1.25004 18.4321H2.75004L2.75004 14.4727H1.25004ZM3.47332 19.9014C3.0368 19.5719 2.75004 19.0391 2.75004 18.4321L1.25004 18.4321C1.25003 19.5214 1.76706 20.4929 2.5697 21.0987L3.47332 19.9014ZM18.7515 4.76043C17.4048 3.63198 15.7816 2.82209 13.9854 2.45234L13.6829 3.92154C15.2282 4.23963 16.6259 4.93628 17.7881 5.91016L18.7515 4.76043ZM7.88011 15.0592L2.96967 19.9697L4.03033 21.0303L8.94077 16.1199L7.88011 15.0592ZM2.96967 19.9697L1.46967 21.4697L2.53033 22.5303L4.03033 21.0303L2.96967 19.9697ZM3.02157 21.25L3.50006 21.25L3.49994 19.75L3.02145 19.75L3.02157 21.25ZM21.4697 1.46967L17.9369 5.00241L18.9976 6.06307L22.5303 2.53033L21.4697 1.46967ZM17.9369 5.00241L7.88011 15.0592L8.94077 16.1199L18.9976 6.06307L17.9369 5.00241ZM17.7395 5.86563L17.9369 6.06307L18.9976 5.00241L18.8002 4.80497L17.7395 5.86563ZM7.57659 14.8623C7.63948 15.058 7.66044 15.2906 7.66044 15.5896H9.16044C9.16044 15.242 9.13958 14.8232 9.00465 14.4033L7.57659 14.8623Z" fill="#363853"/>
</svg>
