<svg width="24" height="24" viewBox="0 0 24 24" fill="none" xmlns="http://www.w3.org/2000/svg">
<path d="M9.62657 18.2839L10.3635 18.4232L10.3635 18.4232L9.62657 18.2839ZM9.64668 18.1774L8.90974 18.0381L8.90974 18.0381L9.64668 18.1774ZM14.3534 18.1774L15.0903 18.0381L15.0903 18.0381L14.3534 18.1774ZM14.3735 18.2839L13.6365 18.4232L13.6365 18.4232L14.3735 18.2839ZM14.072 20.5889L13.3957 20.2648L13.3957 20.2648L14.072 20.5889ZM13.2742 20.5182C13.0952 20.8918 13.2529 21.3397 13.6264 21.5187C13.9999 21.6977 14.4478 21.5401 14.6269 21.1665L13.2742 20.5182ZM9.92804 20.5889L10.6044 20.2648L10.6044 20.2648L9.92804 20.5889ZM9.37318 21.1665C9.55221 21.5401 10.0001 21.6977 10.3737 21.5187C10.7472 21.3397 10.9049 20.8918 10.7258 20.5182L9.37318 21.1665ZM11.3354 16.3443L11.1361 15.6212L11.1361 15.6212L11.3354 16.3443ZM12.6647 16.3443L12.8639 15.6212L12.6647 16.3443ZM10.3635 18.4232L10.3836 18.3167L8.90974 18.0381L8.88962 18.1445L10.3635 18.4232ZM13.6164 18.3167L13.6365 18.4232L15.1104 18.1445L15.0903 18.0381L13.6164 18.3167ZM13.3957 20.2648L13.2742 20.5182L14.6269 21.1665L14.7484 20.9131L13.3957 20.2648ZM9.2517 20.9131L9.37318 21.1665L10.7258 20.5182L10.6044 20.2648L9.2517 20.9131ZM13.6365 18.4232C13.7545 19.047 13.6701 19.6922 13.3957 20.2648L14.7484 20.9131C15.1609 20.0524 15.2877 19.0824 15.1104 18.1445L13.6365 18.4232ZM8.88962 18.1445C8.71233 19.0824 8.83918 20.0524 9.2517 20.9131L10.6044 20.2648C10.33 19.6922 10.2456 19.047 10.3635 18.4232L8.88962 18.1445ZM11.5346 17.0673C11.8392 16.9834 12.1609 16.9834 12.4655 17.0673L12.8639 15.6212C12.2985 15.4655 11.7015 15.4655 11.1361 15.6212L11.5346 17.0673ZM15.0903 18.0381C14.8702 16.8736 14.0064 15.936 12.8639 15.6212L12.4655 17.0673C13.0561 17.2301 13.5026 17.7148 13.6164 18.3167L15.0903 18.0381ZM10.3836 18.3167C10.4974 17.7148 10.9439 17.2301 11.5346 17.0673L11.1361 15.6212C9.99361 15.936 9.12987 16.8736 8.90974 18.0381L10.3836 18.3167Z" fill="#0095FF"/>
<path d="M14.7514 3.34233C14.5662 2.97185 14.1157 2.82168 13.7452 3.00692C13.3747 3.19216 13.2245 3.64266 13.4098 4.01315L14.7514 3.34233ZM14.6104 4.73732L13.9395 5.07273V5.07273L14.6104 4.73732ZM19.2626 9.38958L18.9272 10.0604V10.0604L19.2626 9.38958ZM19.9868 10.5902C20.3573 10.7754 20.8078 10.6253 20.993 10.2548C21.1783 9.8843 21.0281 9.4338 20.6576 9.24855L19.9868 10.5902ZM10.5903 4.01314C10.7755 3.64266 10.6254 3.19215 10.2549 3.00691C9.88441 2.82167 9.4339 2.97184 9.24866 3.34233L10.5903 4.01314ZM9.38969 4.73732L10.0605 5.07273V5.07273L9.38969 4.73732ZM4.73745 9.38958L4.40203 8.71876L4.73745 9.38958ZM3.34245 9.24855C2.97196 9.43379 2.82179 9.8843 3.00704 10.2548C3.19228 10.6253 3.64278 10.7754 4.01327 10.5902L3.34245 9.24855ZM13.4098 4.01315L13.9395 5.07273L15.2812 4.40191L14.7514 3.34233L13.4098 4.01315ZM18.9272 10.0604L19.9868 10.5902L20.6576 9.24855L19.598 8.71876L18.9272 10.0604ZM13.9395 5.07273C15.0187 7.2311 16.7688 8.98122 18.9272 10.0604L19.598 8.71876C17.73 7.78472 16.2152 6.26999 15.2812 4.40191L13.9395 5.07273ZM9.24866 3.34233L8.71887 4.40191L10.0605 5.07273L10.5903 4.01314L9.24866 3.34233ZM4.40203 8.71876L3.34245 9.24855L4.01327 10.5902L5.07286 10.0604L4.40203 8.71876ZM8.71887 4.40191C7.78484 6.26998 6.27011 7.78472 4.40203 8.71876L5.07286 10.0604C7.23122 8.98122 8.98134 7.23109 10.0605 5.07273L8.71887 4.40191Z" fill="#0095FF"/>
<path d="M3.35288 15.0496L4.08306 14.8783L3.35288 15.0496ZM3.35288 8.95043L4.08306 9.12171L3.35288 8.95043ZM20.6471 8.95044L19.9169 9.12171L20.6471 8.95044ZM20.6471 15.0496L21.3773 15.2208L20.6471 15.0496ZM15.0496 20.6471L14.8783 19.9169L15.0496 20.6471ZM8.95044 20.6471L8.77916 21.3773L8.95044 20.6471ZM8.95043 3.35288L9.12171 4.08306L8.95043 3.35288ZM15.0496 3.35288L14.8783 4.08306L15.0496 3.35288ZM4.08306 14.8783C3.63898 12.9851 3.63898 11.0149 4.08306 9.12171L2.6227 8.77915C2.12577 10.8976 2.12577 13.1024 2.6227 15.2208L4.08306 14.8783ZM19.9169 9.12171C20.361 11.0149 20.361 12.9851 19.9169 14.8783L21.3773 15.2208C21.8742 13.1024 21.8742 10.8976 21.3773 8.77916L19.9169 9.12171ZM14.8783 19.9169C12.9851 20.361 11.0149 20.361 9.12171 19.9169L8.77916 21.3773C10.8976 21.8742 13.1024 21.8742 15.2208 21.3773L14.8783 19.9169ZM9.12171 4.08306C11.0149 3.63898 12.9851 3.63898 14.8783 4.08306L15.2208 2.6227C13.1024 2.12577 10.8976 2.12577 8.77916 2.6227L9.12171 4.08306ZM9.12171 19.9169C6.62161 19.3305 4.6695 17.3784 4.08306 14.8783L2.6227 15.2208C3.33924 18.2756 5.72441 20.6608 8.77916 21.3773L9.12171 19.9169ZM15.2208 21.3773C18.2756 20.6608 20.6608 18.2756 21.3773 15.2208L19.9169 14.8783C19.3305 17.3784 17.3784 19.3305 14.8783 19.9169L15.2208 21.3773ZM14.8783 4.08306C17.3784 4.6695 19.3305 6.62161 19.9169 9.12171L21.3773 8.77916C20.6608 5.72441 18.2756 3.33924 15.2208 2.6227L14.8783 4.08306ZM8.77916 2.6227C5.72441 3.33924 3.33924 5.72441 2.6227 8.77915L4.08306 9.12171C4.6695 6.6216 6.62161 4.6695 9.12171 4.08306L8.77916 2.6227Z" fill="#363853"/>
</svg>
