<svg width="24" height="24" viewBox="0 0 24 24" fill="none" xmlns="http://www.w3.org/2000/svg">
<path d="M3.35288 8.95043C4.00437 6.17301 6.17301 4.00437 8.95043 3.35288C10.9563 2.88237 13.0437 2.88237 15.0496 3.35288C17.827 4.00437 19.9956 6.17301 20.6471 8.95044C21.1176 10.9563 21.1176 13.0437 20.6471 15.0496C19.9956 17.827 17.827 19.9956 15.0496 20.6471C13.0437 21.1176 10.9563 21.1176 8.95044 20.6471C6.17301 19.9956 4.00437 17.827 3.35288 15.0496C2.88237 13.0437 2.88237 10.9563 3.35288 8.95043Z" stroke="#0095FF" stroke-width="1.5"/>
<path d="M20.6471 15.0496C21.1176 13.0437 21.1176 10.9563 20.6471 8.95044C19.9956 6.17301 17.827 4.00437 15.0496 3.35288C13.0437 2.88237 10.9563 2.88237 8.95043 3.35288C6.17301 4.00437 4.00437 6.17301 3.35288 8.95043C2.88237 10.9563 2.88237 13.0437 3.35288 15.0496C4.00437 17.827 6.17301 19.9956 8.95044 20.6471C9.87029 20.8629 10.8073 20.9797 11.7458 20.9976" stroke="#363853" stroke-width="1.5" stroke-linecap="round"/>
<rect x="9" y="9" width="6" height="6" rx="3" stroke="#0095FF" stroke-width="1.5"/>
<circle cx="16" cy="7" r="1" fill="#0095FF"/>
</svg>
