<svg width="24" height="24" viewBox="0 0 24 24" fill="none" xmlns="http://www.w3.org/2000/svg">
<path d="M3.35288 15.0496L2.6227 15.2209L3.35288 15.0496ZM3.35288 8.95043L2.6227 8.77915L3.35288 8.95043ZM20.6471 8.95044L19.9169 9.12171L20.6471 8.95044ZM20.6471 15.0496L19.9169 14.8783L20.6471 15.0496ZM15.0496 20.6471L14.8783 19.9169L15.0496 20.6471ZM8.95044 20.6471L8.77916 21.3773L8.95044 20.6471ZM8.95043 3.35288L8.77916 2.6227L8.95043 3.35288ZM15.0496 3.35288L14.8783 4.08306L15.0496 3.35288ZM4.08306 14.8783C3.63898 12.9851 3.63898 11.0149 4.08306 9.12171L2.6227 8.77915C2.12577 10.8976 2.12577 13.1024 2.6227 15.2209L4.08306 14.8783ZM19.9169 9.12171C20.361 11.0149 20.361 12.9851 19.9169 14.8783L21.3773 15.2208C21.8742 13.1024 21.8742 10.8976 21.3773 8.77916L19.9169 9.12171ZM14.8783 19.9169C12.9851 20.361 11.0149 20.361 9.12171 19.9169L8.77916 21.3773C10.8976 21.8742 13.1024 21.8742 15.2208 21.3773L14.8783 19.9169ZM9.12171 4.08306C11.0149 3.63898 12.9851 3.63898 14.8783 4.08306L15.2208 2.6227C13.1024 2.12577 10.8976 2.12577 8.77916 2.6227L9.12171 4.08306ZM9.12171 19.9169C6.62161 19.3305 4.6695 17.3784 4.08306 14.8783L2.6227 15.2209C3.33924 18.2756 5.72441 20.6608 8.77916 21.3773L9.12171 19.9169ZM15.2208 21.3773C18.2756 20.6608 20.6608 18.2756 21.3773 15.2208L19.9169 14.8783C19.3305 17.3784 17.3784 19.3305 14.8783 19.9169L15.2208 21.3773ZM14.8783 4.08306C17.3784 4.6695 19.3305 6.62161 19.9169 9.12171L21.3773 8.77916C20.6608 5.72441 18.2756 3.33924 15.2208 2.6227L14.8783 4.08306ZM8.77916 2.6227C5.72441 3.33924 3.33924 5.72441 2.6227 8.77915L4.08306 9.12171C4.6695 6.6216 6.62161 4.6695 9.12171 4.08306L8.77916 2.6227Z" fill="#0095FF"/>
<path d="M3.35288 15.0496L2.6227 15.2209L3.35288 15.0496ZM3.35288 8.95043L2.6227 8.77915L3.35288 8.95043ZM20.6471 8.95044L19.9169 9.12171L20.6471 8.95044ZM19.9169 14.8783C19.8224 15.2816 20.0726 15.6852 20.4758 15.7797C20.8791 15.8743 21.2827 15.6241 21.3773 15.2208L19.9169 14.8783ZM8.77916 21.3773C9.18243 21.4719 9.58602 21.2217 9.68062 20.8184C9.77521 20.4151 9.52498 20.0115 9.12171 19.9169L8.77916 21.3773ZM8.95043 3.35288L8.77916 2.6227L8.95043 3.35288ZM15.0496 3.35288L14.8783 4.08306L15.0496 3.35288ZM4.08306 14.8783C3.63898 12.9851 3.63898 11.0149 4.08306 9.12171L2.6227 8.77915C2.12577 10.8976 2.12577 13.1024 2.6227 15.2209L4.08306 14.8783ZM19.9169 9.12171C20.361 11.0149 20.361 12.9851 19.9169 14.8783L21.3773 15.2208C21.8742 13.1024 21.8742 10.8976 21.3773 8.77916L19.9169 9.12171ZM9.12171 4.08306C11.0149 3.63898 12.9851 3.63898 14.8783 4.08306L15.2208 2.6227C13.1024 2.12577 10.8976 2.12577 8.77916 2.6227L9.12171 4.08306ZM9.12171 19.9169C6.62161 19.3305 4.6695 17.3784 4.08306 14.8783L2.6227 15.2209C3.33924 18.2756 5.72441 20.6608 8.77916 21.3773L9.12171 19.9169ZM14.8783 4.08306C17.3784 4.6695 19.3305 6.62161 19.9169 9.12171L21.3773 8.77916C20.6608 5.72441 18.2756 3.33924 15.2208 2.6227L14.8783 4.08306ZM8.77916 2.6227C5.72441 3.33924 3.33924 5.72441 2.6227 8.77915L4.08306 9.12171C4.6695 6.6216 6.62161 4.6695 9.12171 4.08306L8.77916 2.6227Z" fill="#363853"/>
<path d="M10.5559 12.6028L11.2691 12.8346C11.3729 12.5153 11.2519 12.166 10.9729 11.9794L10.5559 12.6028ZM9.84194 14.7992L10.5552 15.031L9.84194 14.7992ZM13.4441 12.6028L13.0271 11.9794C12.7481 12.166 12.6271 12.5153 12.7308 12.8346L13.4441 12.6028ZM14.158 14.7992L13.4447 15.031L14.158 14.7992ZM10.1493 10.4395C10.1493 9.41745 10.9779 8.58887 12 8.58887V7.08887C10.1494 7.08887 8.64929 8.58902 8.64929 10.4395H10.1493ZM12 8.58887C13.0221 8.58887 13.8507 9.41745 13.8507 10.4395H15.3507C15.3507 8.58902 13.8505 7.08887 12 7.08887V8.58887ZM10.9729 11.9794C10.4747 11.6462 10.1493 11.0807 10.1493 10.4395H8.64929C8.64929 11.6024 9.24227 12.6264 10.1389 13.2262L10.9729 11.9794ZM9.84259 12.3709L9.12867 14.5674L10.5552 15.031L11.2691 12.8346L9.84259 12.3709ZM10.8313 16.911H13.1687V15.411H10.8313V16.911ZM13.8507 10.4395C13.8507 11.0807 13.5252 11.6462 13.0271 11.9794L13.8611 13.2262C14.7577 12.6264 15.3507 11.6024 15.3507 10.4395H13.8507ZM14.8713 14.5674L14.1574 12.3709L12.7308 12.8346L13.4447 15.031L14.8713 14.5674ZM13.1687 16.911C14.385 16.911 15.2473 15.7241 14.8713 14.5674L13.4447 15.031C13.5057 15.2186 13.3659 15.411 13.1687 15.411V16.911ZM9.12867 14.5674C8.75268 15.7241 9.61493 16.911 10.8313 16.911V15.411C10.634 15.411 10.4942 15.2186 10.5552 15.031L9.12867 14.5674Z" fill="#0095FF"/>
</svg>
