<svg width="24" height="24" viewBox="0 0 24 24" fill="none" xmlns="http://www.w3.org/2000/svg">
<path d="M9.04487 19.6959C9.12735 19.8727 9.15926 20.0714 9.1357 20.2678L10.625 20.4464C10.6817 19.9735 10.6055 19.4932 10.4042 19.0617L9.04487 19.6959ZM9.1357 20.2678C9.11215 20.4642 9.03449 20.6475 8.91431 20.7965L10.0818 21.7383C10.3807 21.3678 10.5683 20.9194 10.625 20.4464L9.1357 20.2678ZM8.91431 20.7965C8.79428 20.9453 8.63738 21.0532 8.46377 21.1103L8.93252 22.5352C9.38458 22.3865 9.78285 22.1089 10.0818 21.7383L8.91431 20.7965ZM8.46377 21.1103C8.29033 21.1674 8.10524 21.1722 7.92951 21.1244L7.53598 22.5719C7.99537 22.6968 8.48029 22.684 8.93252 22.5352L8.46377 21.1103ZM7.92951 21.1244C7.75363 21.0766 7.59203 20.9774 7.46514 20.8355L6.34718 21.8356C6.66467 22.1905 7.07674 22.447 7.53598 22.5719L7.92951 21.1244ZM7.46514 20.8355C7.33809 20.6935 7.25152 20.5149 7.21823 20.3202L5.73968 20.5729C5.81994 21.0425 6.02986 21.4809 6.34718 21.8356L7.46514 20.8355ZM7.21823 20.3202C7.18493 20.1254 7.20682 19.9252 7.28053 19.7439L5.891 19.1789C5.71166 19.62 5.65942 20.1035 5.73968 20.5729L7.21823 20.3202ZM7.28053 19.7439C7.35419 19.5627 7.47566 19.4099 7.62787 19.3016L6.758 18.0795C6.37032 18.3555 6.0704 18.7377 5.891 19.1789L7.28053 19.7439ZM17.7772 19.4549C17.9196 19.5793 18.0264 19.7453 18.0823 19.9344L19.5208 19.5093C19.3854 19.0511 19.1239 18.6398 18.7645 18.3256L17.7772 19.4549ZM18.0823 19.9344C18.1382 20.1236 18.1401 20.3259 18.0875 20.5162L19.5334 20.9156C19.6605 20.4552 19.6562 19.9673 19.5208 19.5093L18.0823 19.9344ZM18.0875 20.5162C18.0349 20.7065 17.931 20.8746 17.7907 21.0018L18.7986 22.1128C19.1521 21.7921 19.4062 21.3761 19.5334 20.9156L18.0875 20.5162ZM17.7907 21.0018C17.6507 21.1289 17.4803 21.2101 17.3005 21.2385L17.535 22.7201C18.0065 22.6454 18.4449 22.4337 18.7986 22.1128L17.7907 21.0018ZM17.3005 21.2385C17.1208 21.267 16.9364 21.2421 16.7687 21.1656L16.1468 22.5307C16.5814 22.7286 17.0635 22.7947 17.535 22.7201L17.3005 21.2385ZM16.7687 21.1656C16.6007 21.0891 16.4547 20.9633 16.3502 20.8004L15.0877 21.6103C15.3456 22.0124 15.7125 22.3328 16.1468 22.5307L16.7687 21.1656ZM16.3502 20.8004C16.2456 20.6373 16.1877 20.445 16.1855 20.2463L14.6856 20.2632C14.691 20.7409 14.8299 21.2085 15.0877 21.6103L16.3502 20.8004ZM16.1855 20.2463C16.1833 20.0477 16.2368 19.8539 16.3378 19.6881L15.0571 18.9073C14.8085 19.3149 14.6802 19.7855 14.6856 20.2632L16.1855 20.2463Z" fill="#0095FF"/>
<path d="M4.83152 14.6249L4.10304 14.8032L4.83152 14.6249ZM4.83152 9.03105L5.56 9.20941L4.83152 9.03105ZM20.6628 9.03105L21.3913 8.85269L20.6628 9.03105ZM20.6628 14.6248L21.3913 14.8032L20.6628 14.6248ZM15.4356 19.4632L15.2711 18.7315H15.2711L15.4356 19.4632ZM10.0588 19.4632L10.2232 18.7315H10.2232L10.0588 19.4632ZM10.0588 4.19267L10.2232 4.92442L10.0588 4.19267ZM15.4356 4.19267L15.6 3.46092V3.46092L15.4356 4.19267ZM9.58528 19.3568L9.42084 20.0886H9.42084L9.58528 19.3568ZM15.9091 19.3568L16.0735 20.0886L16.0735 20.0886L15.9091 19.3568ZM15.9091 4.29907L15.7446 5.03083L15.9091 4.29907ZM9.58528 4.29908L9.42084 3.56732V3.56732L9.58528 4.29908ZM5.72452 5.75613L4.98684 5.89155L4.98684 5.89155L5.72452 5.75613ZM5.12913 6.6666C5.20392 7.07401 5.59482 7.34364 6.00222 7.26885C6.40963 7.19406 6.67926 6.80316 6.60447 6.39576L5.12913 6.6666ZM3.13142 2.2616C2.72361 2.18902 2.33418 2.46078 2.2616 2.86858C2.18902 3.27639 2.46078 3.66582 2.86858 3.7384L3.13142 2.2616ZM9.74972 5.03083L10.2232 4.92442L9.89436 3.46091L9.42084 3.56732L9.74972 5.03083ZM15.2711 4.92442L15.7446 5.03083L16.0735 3.56732L15.6 3.46092L15.2711 4.92442ZM15.7446 18.6251L15.2711 18.7315L15.6 20.195L16.0735 20.0886L15.7446 18.6251ZM10.2232 18.7315L9.74972 18.6251L9.42084 20.0886L9.89436 20.195L10.2232 18.7315ZM5.56 14.4465C5.13914 12.7276 5.13914 10.9283 5.56 9.20941L4.10304 8.85268C3.62479 10.8059 3.62479 12.85 4.10304 14.8032L5.56 14.4465ZM19.9344 9.20942C20.3552 10.9283 20.3552 12.7276 19.9344 14.4465L21.3913 14.8032C21.8696 12.85 21.8696 10.8059 21.3913 8.85269L19.9344 9.20942ZM15.2711 18.7315C13.6081 19.1052 11.8862 19.1052 10.2232 18.7315L9.89436 20.195C11.7739 20.6174 13.7204 20.6174 15.6 20.195L15.2711 18.7315ZM10.2232 4.92442C11.8862 4.55071 13.6081 4.55071 15.2711 4.92442L15.6 3.46092C13.7204 3.03854 11.7739 3.03854 9.89436 3.46091L10.2232 4.92442ZM9.74972 18.6251C7.7049 18.1656 6.07592 16.5536 5.56 14.4465L4.10304 14.8032C4.75032 17.4468 6.80386 19.5005 9.42084 20.0886L9.74972 18.6251ZM16.0735 20.0886C18.6905 19.5005 20.744 17.4468 21.3913 14.8032L19.9344 14.4465C19.4184 16.5536 17.7895 18.1656 15.7446 18.6251L16.0735 20.0886ZM15.7446 5.03083C17.7895 5.49034 19.4184 7.10233 19.9344 9.20942L21.3913 8.85269C20.744 6.20908 18.6905 4.15541 16.0735 3.56732L15.7446 5.03083ZM9.42084 3.56732C6.80386 4.15541 4.75032 6.20908 4.10304 8.85268L5.56 9.20941C6.07592 7.10232 7.7049 5.49034 9.74972 5.03083L9.42084 3.56732ZM5.29343 16.1091H20.2009V14.6091H5.29343V16.1091ZM4.98684 5.89155L5.12913 6.6666L6.60447 6.39576L6.46219 5.62071L4.98684 5.89155ZM2.86858 3.7384C3.92972 3.92725 4.78224 4.77704 4.98684 5.89155L6.46219 5.62071C6.14833 3.91105 4.82893 2.56372 3.13142 2.2616L2.86858 3.7384Z" fill="#363853"/>
<path d="M15 7L15.0408 7.0068C16.7484 7.29141 18 8.76883 18 10.5" stroke="#0095FF" stroke-width="1.5" stroke-linecap="round"/>
</svg>
