<svg width="24" height="24" viewBox="0 0 24 24" fill="none" xmlns="http://www.w3.org/2000/svg">
<path d="M3.35288 15.0496L2.6227 15.2209L3.35288 15.0496ZM3.35288 8.95043L2.6227 8.77915L3.35288 8.95043ZM20.6471 8.95044L19.9169 9.12171L20.6471 8.95044ZM20.6471 15.0496L19.9169 14.8783L20.6471 15.0496ZM15.0496 20.6471L14.8783 19.9169L15.0496 20.6471ZM8.95044 20.6471L8.77916 21.3773L8.95044 20.6471ZM8.95043 3.35288L8.77916 2.6227L8.95043 3.35288ZM15.0496 3.35288L14.8783 4.08306L15.0496 3.35288ZM4.08306 14.8783C3.63898 12.9851 3.63898 11.0149 4.08306 9.12171L2.6227 8.77915C2.12577 10.8976 2.12577 13.1024 2.6227 15.2209L4.08306 14.8783ZM19.9169 9.12171C20.361 11.0149 20.361 12.9851 19.9169 14.8783L21.3773 15.2208C21.8742 13.1024 21.8742 10.8976 21.3773 8.77916L19.9169 9.12171ZM14.8783 19.9169C12.9851 20.361 11.0149 20.361 9.12171 19.9169L8.77916 21.3773C10.8976 21.8742 13.1024 21.8742 15.2208 21.3773L14.8783 19.9169ZM9.12171 4.08306C11.0149 3.63898 12.9851 3.63898 14.8783 4.08306L15.2208 2.6227C13.1024 2.12577 10.8976 2.12577 8.77916 2.6227L9.12171 4.08306ZM9.12171 19.9169C6.62161 19.3305 4.6695 17.3784 4.08306 14.8783L2.6227 15.2209C3.33924 18.2756 5.72441 20.6608 8.77916 21.3773L9.12171 19.9169ZM15.2208 21.3773C18.2756 20.6608 20.6608 18.2756 21.3773 15.2208L19.9169 14.8783C19.3305 17.3784 17.3784 19.3305 14.8783 19.9169L15.2208 21.3773ZM14.8783 4.08306C17.3784 4.6695 19.3305 6.62161 19.9169 9.12171L21.3773 8.77916C20.6608 5.72441 18.2756 3.33924 15.2208 2.6227L14.8783 4.08306ZM8.77916 2.6227C5.72441 3.33924 3.33924 5.72441 2.6227 8.77915L4.08306 9.12171C4.6695 6.6216 6.62161 4.6695 9.12171 4.08306L8.77916 2.6227Z" fill="#0095FF"/>
<path d="M2.6227 15.2209C2.71729 15.6241 3.12089 15.8743 3.52416 15.7798C3.92742 15.6852 4.17765 15.2816 4.08306 14.8783L2.6227 15.2209ZM3.35288 8.95043L2.6227 8.77915L3.35288 8.95043ZM20.6471 8.95044L19.9169 9.12171L20.6471 8.95044ZM20.6471 15.0496L19.9169 14.8783L20.6471 15.0496ZM14.8783 19.9169C14.475 20.0115 14.2248 20.4151 14.3194 20.8184C14.414 21.2217 14.8176 21.4719 15.2208 21.3773L14.8783 19.9169ZM8.95043 3.35288L8.77916 2.6227L8.95043 3.35288ZM15.0496 3.35288L14.8783 4.08306L15.0496 3.35288ZM4.08306 14.8783C3.63898 12.9851 3.63898 11.0149 4.08306 9.12171L2.6227 8.77915C2.12577 10.8976 2.12577 13.1024 2.6227 15.2209L4.08306 14.8783ZM19.9169 9.12171C20.361 11.0149 20.361 12.9851 19.9169 14.8783L21.3773 15.2208C21.8742 13.1024 21.8742 10.8976 21.3773 8.77916L19.9169 9.12171ZM9.12171 4.08306C11.0149 3.63898 12.9851 3.63898 14.8783 4.08306L15.2208 2.6227C13.1024 2.12577 10.8976 2.12577 8.77916 2.6227L9.12171 4.08306ZM15.2208 21.3773C18.2756 20.6608 20.6608 18.2756 21.3773 15.2208L19.9169 14.8783C19.3305 17.3784 17.3784 19.3305 14.8783 19.9169L15.2208 21.3773ZM14.8783 4.08306C17.3784 4.6695 19.3305 6.62161 19.9169 9.12171L21.3773 8.77916C20.6608 5.72441 18.2756 3.33924 15.2208 2.6227L14.8783 4.08306ZM8.77916 2.6227C5.72441 3.33924 3.33924 5.72441 2.6227 8.77915L4.08306 9.12171C4.6695 6.6216 6.62161 4.6695 9.12171 4.08306L8.77916 2.6227Z" fill="#363853"/>
<path d="M7.85735 12.2228C7.54946 12.4998 7.5245 12.9741 7.8016 13.2819C8.07869 13.5898 8.55291 13.6148 8.86079 13.3377L7.85735 12.2228ZM10.0656 11.2444L10.5673 11.8018V11.8018L10.0656 11.2444ZM11.627 11.4406L12.2511 11.0245L12.2511 11.0245L11.627 11.4406ZM12.373 12.5595L11.749 12.9755L11.749 12.9755L12.373 12.5595ZM13.9345 12.7557L14.4362 13.3131L13.9345 12.7557ZM16.1427 11.7773C16.4506 11.5002 16.4755 11.026 16.1984 10.7181C15.9214 10.4102 15.4471 10.3853 15.1393 10.6623L16.1427 11.7773ZM13.0746 13.2875L12.9811 14.0317H12.9811L13.0746 13.2875ZM10.9255 10.7125L10.832 11.4567L10.832 11.4567L10.9255 10.7125ZM8.86079 13.3377L10.5673 11.8018L9.56386 10.6869L7.85735 12.2228L8.86079 13.3377ZM11.003 11.8566L11.749 12.9755L12.997 12.1435L12.2511 11.0245L11.003 11.8566ZM14.4362 13.3131L16.1427 11.7773L15.1393 10.6623L13.4327 12.1982L14.4362 13.3131ZM11.749 12.9755C11.8916 13.1894 12.0414 13.4173 12.1919 13.5861C12.3566 13.7708 12.6073 13.9847 12.9811 14.0317L13.1681 12.5434C13.227 12.5508 13.2771 12.5721 13.31 12.5929C13.3361 12.6094 13.3372 12.6167 13.3115 12.5878C13.2857 12.5589 13.2487 12.5118 13.1933 12.4333C13.1383 12.3552 13.0763 12.2623 12.997 12.1435L11.749 12.9755ZM13.4327 12.1982C13.3266 12.2937 13.2435 12.3684 13.1709 12.4305C13.0978 12.4929 13.0503 12.5293 13.0182 12.551C12.9861 12.5726 12.989 12.5658 13.0183 12.5563C13.0554 12.5442 13.1091 12.536 13.1681 12.5434L12.9811 14.0317C13.3549 14.0786 13.6507 13.9334 13.8559 13.7952C14.0436 13.6689 14.2451 13.4851 14.4362 13.3131L13.4327 12.1982ZM10.5673 11.8018C10.6734 11.7063 10.7565 11.6316 10.8292 11.5696C10.9023 11.5072 10.9498 11.4707 10.9819 11.4491C11.0139 11.4275 11.0111 11.4343 10.9818 11.4438C10.9447 11.4558 10.8909 11.4641 10.832 11.4567L11.019 9.96837C10.6451 9.92141 10.3493 10.0666 10.1441 10.2048C9.95644 10.3312 9.75493 10.5149 9.56386 10.6869L10.5673 11.8018ZM12.2511 11.0245C12.1085 10.8106 11.9587 10.5828 11.8081 10.4139C11.6435 10.2292 11.3928 10.0153 11.019 9.96837L10.832 11.4567C10.773 11.4493 10.723 11.428 10.69 11.4071C10.664 11.3907 10.6629 11.3834 10.6886 11.4122C10.7144 11.4411 10.7513 11.4882 10.8067 11.5668C10.8618 11.6449 10.9238 11.7378 11.003 11.8566L12.2511 11.0245Z" fill="#0095FF"/>
</svg>
