<svg width="24" height="24" viewBox="0 0 24 24" fill="none" xmlns="http://www.w3.org/2000/svg">
<path d="M7.14286 15.1429H6.39286V15.8929H7.14286V15.1429ZM16.8571 15.1429V15.8929H17.6071V15.1429H16.8571ZM3.5 14.3929C3.08579 14.3929 2.75 14.7286 2.75 15.1429C2.75 15.5571 3.08579 15.8929 3.5 15.8929V14.3929ZM20.5 15.8929C20.9142 15.8929 21.25 15.5571 21.25 15.1429C21.25 14.7286 20.9142 14.3929 20.5 14.3929V15.8929ZM7.89286 15.1429C7.89286 12.6758 9.7715 10.75 12 10.75V9.25C8.86345 9.25 6.39286 11.9293 6.39286 15.1429H7.89286ZM12 10.75C14.2285 10.75 16.1071 12.6758 16.1071 15.1429H17.6071C17.6071 11.9293 15.1366 9.25 12 9.25V10.75ZM7.14286 15.8929H16.8571V14.3929H7.14286V15.8929ZM3.5 15.8929H20.5V14.3929H3.5V15.8929Z" fill="#363853"/>
<path d="M12 6V5M16.5 7.06219L15.5622 8M8.43781 8L7.5 7.06218" stroke="#0095FF" stroke-width="1.5" stroke-linecap="round" stroke-linejoin="round"/>
<path d="M7.14282 18.25C6.72861 18.25 6.39282 18.5858 6.39282 19C6.39282 19.4142 6.72861 19.75 7.14282 19.75V18.25ZM16.8571 19.75C17.2713 19.75 17.6071 19.4142 17.6071 19C17.6071 18.5858 17.2713 18.25 16.8571 18.25V19.75ZM7.14282 19.75H16.8571V18.25H7.14282V19.75Z" fill="#0095FF"/>
</svg>
