<svg width="24" height="24" viewBox="0 0 24 24" fill="none" xmlns="http://www.w3.org/2000/svg">
<path d="M15.0496 3.35288C17.827 4.00437 19.9956 6.17301 20.6471 8.95043C21.1176 10.9563 21.1176 13.0437 20.6471 15.0496C19.9956 17.827 17.827 19.9956 15.0496 20.6471C13.0437 21.1176 10.9563 21.1176 8.95044 20.6471C6.17301 19.9956 4.00437 17.827 3.35288 15.0496C2.88237 13.0437 2.88237 10.9563 3.35288 8.95044C4.00437 6.17301 6.173 4.00437 8.95043 3.35288C10.9563 2.88237 13.0437 2.88237 15.0496 3.35288Z" stroke="#0095FF" stroke-width="1.5"/>
<path d="M15.0496 3.35288C13.0437 2.88237 10.9563 2.88237 8.95043 3.35288C6.173 4.00437 4.00437 6.17301 3.35288 8.95044C2.88237 10.9563 2.88237 13.0437 3.35288 15.0496C4.00437 17.827 6.17301 19.9956 8.95044 20.6471C10.9563 21.1176 13.0437 21.1176 15.0496 20.6471C17.827 19.9956 19.9956 17.827 20.6471 15.0496" stroke="#363853" stroke-width="1.5" stroke-linecap="round"/>
<path d="M11.25 15.1208C11.25 15.535 11.5858 15.8708 12 15.8708C12.4142 15.8708 12.75 15.535 12.75 15.1208H11.25ZM8.87918 8.12915C8.46497 8.12915 8.12918 8.46494 8.12918 8.87915C8.12918 9.29336 8.46497 9.62915 8.87918 9.62915V8.12915ZM15.1208 9.62915C15.535 9.62915 15.8708 9.29336 15.8708 8.87915C15.8708 8.46494 15.535 8.12915 15.1208 8.12915V9.62915ZM11.25 8.87915V15.1208H12.75V8.87915H11.25ZM12 8.12915H8.87918V9.62915H12V8.12915ZM12 9.62915H15.1208V8.12915H12V9.62915Z" fill="#0095FF"/>
</svg>
