<svg width="24" height="24" viewBox="0 0 24 24" fill="none" xmlns="http://www.w3.org/2000/svg">
<path d="M6.89404 7.44547C6.89404 7.85968 7.22983 8.19547 7.64404 8.19547C8.05826 8.19547 8.39404 7.85968 8.39404 7.44547H6.89404ZM7.64404 7.20939H6.89404H7.64404ZM10.9188 3.14409L10.737 2.41646L10.737 2.41646L10.9188 3.14409ZM10.9872 3.12701L11.169 3.85464L11.169 3.85464L10.9872 3.12701ZM14.9208 4.15264L14.4015 4.69381L14.4015 4.69381L14.9208 4.15264ZM14.657 4.93894C14.9559 5.22572 15.4307 5.21592 15.7175 4.91704C16.0042 4.61816 15.9944 4.14339 15.6955 3.8566L14.657 4.93894ZM13.0155 3.1175L13.1904 2.38819L13.0155 3.1175ZM8.39404 7.44547V7.20939H6.89404V7.44547H8.39404ZM11.1006 3.87172L11.169 3.85464L10.8053 2.39938L10.737 2.41646L11.1006 3.87172ZM14.4015 4.69381L14.657 4.93894L15.6955 3.8566L15.4401 3.61147L14.4015 4.69381ZM12.8405 3.84681C13.4347 3.98934 13.9738 4.28335 14.4015 4.69381L15.4401 3.61147C14.8166 3.01323 14.0385 2.59164 13.1904 2.38819L12.8405 3.84681ZM11.169 3.85464C11.7165 3.71783 12.2915 3.71512 12.8405 3.84681L13.1904 2.38819C12.4068 2.20023 11.587 2.20406 10.8053 2.39938L11.169 3.85464ZM8.39404 7.20939C8.39404 5.66024 9.48703 4.27491 11.1006 3.87172L10.737 2.41646C8.49321 2.97712 6.89404 4.93383 6.89404 7.20939H8.39404Z" fill="#0095FF"/>
<path d="M4.6531 17.0306L3.9585 17.3135H3.9585L4.6531 17.0306ZM4.30609 11.4076L5.03001 11.6037L4.30609 11.4076ZM19.6939 11.4076L18.97 11.6037L19.6939 11.4076ZM19.3469 17.0306L20.0415 17.3135L19.3469 17.0306ZM14.0365 20.8419L14.1522 21.583L14.0365 20.8419ZM9.96352 20.8419L9.84775 21.583H9.84775L9.96352 20.8419ZM8.65619 7.61681L8.50688 6.88182V6.88182L8.65619 7.61681ZM15.3438 7.61681L15.1945 8.3518L15.1945 8.3518L15.3438 7.61681ZM9.21479 20.725L9.33056 19.984H9.33056L9.21479 20.725ZM4.74598 17.2587L5.44059 16.9758H5.44059L4.74598 17.2587ZM14.7852 20.725L14.6694 19.984L14.7852 20.725ZM19.254 17.2587L18.5594 16.9758L19.254 17.2587ZM15.6199 7.6729L15.7692 6.93792L15.7692 6.93792L15.6199 7.6729ZM8.38009 7.6729L8.5294 8.40789L8.38009 7.6729ZM8.5294 8.40789L8.80551 8.3518L8.50688 6.88182L8.23077 6.93792L8.5294 8.40789ZM15.1945 8.3518L15.4706 8.40789L15.7692 6.93792L15.4931 6.88182L15.1945 8.3518ZM14.6694 19.984L13.9207 20.1009L14.1522 21.583L14.901 21.466L14.6694 19.984ZM10.0793 20.1009L9.33056 19.984L9.09902 21.466L9.84775 21.583L10.0793 20.1009ZM18.6523 16.7477L18.5594 16.9758L19.9486 17.5416L20.0415 17.3135L18.6523 16.7477ZM5.44059 16.9758L5.3477 16.7478L3.9585 17.3135L4.05138 17.5416L5.44059 16.9758ZM5.3477 16.7478C4.67942 15.1069 4.56861 13.3073 5.03001 11.6037L3.58217 11.2116C3.03461 13.2333 3.16669 15.3694 3.9585 17.3135L5.3477 16.7478ZM18.97 11.6037C19.4314 13.3073 19.3206 15.1069 18.6523 16.7477L20.0415 17.3135C20.8333 15.3694 20.9654 13.2333 20.4178 11.2116L18.97 11.6037ZM13.9207 20.1009C12.6486 20.2997 11.3513 20.2997 10.0793 20.1009L9.84775 21.583C11.2732 21.8057 12.7267 21.8057 14.1522 21.583L13.9207 20.1009ZM8.80551 8.3518C10.9117 7.92391 13.0883 7.92391 15.1945 8.3518L15.4931 6.88182C13.1898 6.4139 10.8102 6.4139 8.50688 6.88182L8.80551 8.3518ZM9.33056 19.984C7.55581 19.7067 6.08337 18.5541 5.44059 16.9758L4.05138 17.5416C4.90105 19.6278 6.8268 21.111 9.09902 21.466L9.33056 19.984ZM14.901 21.466C17.1732 21.111 19.0989 19.6278 19.9486 17.5416L18.5594 16.9758C17.9166 18.5541 16.4442 19.7067 14.6694 19.984L14.901 21.466ZM15.4706 8.40789C17.1917 8.75753 18.5371 10.0052 18.97 11.6037L20.4178 11.2116C19.8296 9.03974 18.02 7.39516 15.7692 6.93792L15.4706 8.40789ZM8.23077 6.93792C5.98003 7.39516 4.1704 9.03975 3.58217 11.2116L5.03001 11.6037C5.46295 10.0052 6.80831 8.75753 8.5294 8.40789L8.23077 6.93792Z" fill="#363853"/>
<path d="M12 13.5L12 15.5" stroke="#0095FF" stroke-width="1.5" stroke-linecap="round"/>
</svg>
