<svg width="24" height="24" viewBox="0 0 24 24" fill="none" xmlns="http://www.w3.org/2000/svg">
<path d="M16.8603 15.3736C16.9115 15.3906 16.9614 15.4111 17.0097 15.4351L18.6936 16.2714C19.9829 16.9117 21.5 15.9804 21.5 14.5486L21.5 9.81018C21.5 8.29734 19.8246 7.37503 18.533 8.17684L17.0474 9.09913C16.9742 9.14457 16.9064 9.19812 16.8453 9.25876" stroke="#0095FF" stroke-width="1.5"/>
<path d="M16.6633 15.3084C17.1102 13.3366 17.1526 11.2977 16.7904 9.31325M2.8825 15.4419L2.94414 15.7158C3.31747 17.375 4.60449 18.6812 6.26653 19.0876C8.53218 19.6417 10.9252 19.6353 13.1909 19.0813C14.832 18.68 16.1361 17.4066 16.549 15.7787L16.574 15.6801C17.1868 13.2644 17.1868 10.7356 16.574 8.31991L16.549 8.22135C16.1361 6.59343 14.832 5.32005 13.1909 4.91871C10.9252 4.36467 8.53218 4.35834 6.26653 4.91238C4.60448 5.31882 3.31747 6.62497 2.94414 8.28418L2.8825 8.55815C2.3725 10.8248 2.3725 13.1752 2.8825 15.4419Z" stroke="#363853" stroke-width="1.5"/>
</svg>
