<svg width="24" height="24" viewBox="0 0 24 24" fill="none" xmlns="http://www.w3.org/2000/svg">
<path d="M20.4697 21.5303C20.7626 21.8232 21.2375 21.8232 21.5304 21.5303C21.8233 21.2374 21.8233 20.7625 21.5304 20.4696L20.4697 21.5303ZM16.8049 17.8654L20.4697 21.5303L21.5304 20.4696L17.8655 16.8048L16.8049 17.8654Z" fill="#0095FF"/>
<path d="M3.31573 13.7811L4.04591 13.6098L3.31573 13.7811ZM3.31573 8.324L4.04591 8.49528L3.31573 8.324ZM18.7893 8.324L19.5195 8.15273L18.7893 8.324ZM18.7893 13.781L18.0591 13.6098L18.7893 13.781ZM13.781 18.7893L13.6098 18.0591L13.781 18.7893ZM8.324 18.7893L8.15273 19.5195L8.324 18.7893ZM8.324 3.31573L8.15272 2.58555L8.324 3.31573ZM13.781 3.31573L13.9523 2.58555L13.781 3.31573ZM4.04591 13.6098C3.65136 11.9278 3.65136 10.1773 4.04591 8.49528L2.58555 8.15272C2.13815 10.06 2.13815 12.045 2.58555 13.9523L4.04591 13.6098ZM18.0591 8.49528C18.4537 10.1773 18.4537 11.9278 18.0591 13.6098L19.5195 13.9523C19.9669 12.045 19.9669 10.06 19.5195 8.15273L18.0591 8.49528ZM13.6098 18.0591C11.9278 18.4537 10.1773 18.4537 8.49528 18.0591L8.15273 19.5195C10.06 19.9669 12.045 19.9669 13.9523 19.5195L13.6098 18.0591ZM8.49528 4.04591C10.1773 3.65136 11.9278 3.65136 13.6098 4.04591L13.9523 2.58555C12.045 2.13815 10.06 2.13815 8.15272 2.58555L8.49528 4.04591ZM8.49528 18.0591C6.28757 17.5413 4.56377 15.8175 4.04591 13.6098L2.58555 13.9523C3.23351 16.7147 5.39038 18.8715 8.15273 19.5195L8.49528 18.0591ZM13.9523 19.5195C16.7147 18.8715 18.8715 16.7147 19.5195 13.9523L18.0591 13.6098C17.5413 15.8175 15.8175 17.5413 13.6098 18.0591L13.9523 19.5195ZM13.6098 4.04591C15.8175 4.56377 17.5413 6.28757 18.0591 8.49528L19.5195 8.15273C18.8715 5.39037 16.7147 3.23351 13.9523 2.58555L13.6098 4.04591ZM8.15272 2.58555C5.39037 3.23351 3.23351 5.39037 2.58555 8.15272L4.04591 8.49528C4.56377 6.28756 6.28757 4.56377 8.49528 4.04591L8.15272 2.58555Z" fill="#363853"/>
<path d="M13.6703 11.8026C14.0845 11.8026 14.4203 11.4668 14.4203 11.0526C14.4203 10.6384 14.0845 10.3026 13.6703 10.3026V11.8026ZM8.43481 10.3026C8.0206 10.3026 7.68481 10.6384 7.68481 11.0526C7.68481 11.4668 8.0206 11.8026 8.43481 11.8026V10.3026ZM10.3026 13.6703C10.3026 14.0845 10.6384 14.4203 11.0526 14.4203C11.4668 14.4203 11.8026 14.0845 11.8026 13.6703H10.3026ZM11.8026 8.43481C11.8026 8.0206 11.4668 7.68481 11.0526 7.68481C10.6384 7.68481 10.3026 8.0206 10.3026 8.43481H11.8026ZM13.6703 10.3026H11.0526V11.8026H13.6703V10.3026ZM11.0526 10.3026H8.43481V11.8026H11.0526V10.3026ZM11.8026 13.6703V11.0526H10.3026V13.6703H11.8026ZM11.8026 11.0526V8.43481H10.3026V11.0526H11.8026Z" fill="#0095FF"/>
</svg>
