<svg width="24" height="24" viewBox="0 0 24 24" fill="none" xmlns="http://www.w3.org/2000/svg">
<path d="M9.19995 7L8.99875 7.47905C8.67393 8.25243 8.59229 9.10637 8.76468 9.92729C9.02773 11.1799 10.0249 12.1473 11.2849 12.3723L11.3958 12.3921C11.7954 12.4635 12.2045 12.4635 12.6041 12.3921L12.715 12.3723C13.975 12.1473 14.9722 11.1799 15.2352 9.92729C15.4076 9.10637 15.326 8.25243 15.0012 7.47905L14.8 7" stroke="#0095FF" stroke-width="1.5" stroke-linecap="round"/>
<path d="M20.2208 15.143C19.6506 17.6504 17.7016 19.6204 15.2023 20.2251C13.1019 20.7334 10.8982 20.7334 8.79778 20.2251C6.29849 19.6204 4.34948 17.6504 3.77931 15.143C3.26987 12.9026 3.39377 10.5648 4.13715 8.39084L4.24759 8.06787C5.06554 5.67585 7.10888 3.91013 9.59422 3.44766L10.2748 3.32102C11.4152 3.10881 12.585 3.10881 13.7254 3.32102L14.4059 3.44766C16.8913 3.91013 18.9346 5.67586 19.7526 8.06789L19.863 8.39084C20.6064 10.5648 20.7303 12.9026 20.2208 15.143Z" stroke="#363853" stroke-width="1.5"/>
</svg>
